<svg width="25" height="24" viewBox="0 0 25 24" fill="none" xmlns="http://www.w3.org/2000/svg">
<g id="vuesax/linear/apple">
<g id="apple">
<path id="Vector" fill-rule="evenodd" clip-rule="evenodd" d="M15.9 2C16.1 3.1 15.6 4.2 15 5C14.4 5.8 13.3 6.5 12.2 6.4C12 5.3 12.5 4.3 13.1 3.5C13.8 2.7 14.9 2.1 15.9 2ZM19.1 19.4C19.6 18.6 19.9 18.1 20.3 17.2C17.2 16 16.7 11.6 19.8 10C18.9 8.8 17.6 8.2 16.3 8.2C15.4 8.2 14.8 8.4 14.2 8.6C13.7 8.8 13.3 8.9 12.8 8.9C12.2 8.9 11.8 8.7 11.2 8.5C10.6 8.3 10 8.1 9.30004 8.1C7.90004 8.1 6.40004 8.9 5.50004 10.4C4.20004 12.4 4.40004 16.3 6.50004 19.5C7.40004 20.7 8.40004 22 9.70004 22C10.3 22 10.6 21.8 11 21.7C11.5 21.5 12 21.3 12.8 21.3C13.7 21.3 14.1 21.5 14.6 21.7C15 21.9 15.3 22 15.9 22C17.3 22 18.3 20.5 19.1 19.4Z" stroke-width="1.5" stroke-miterlimit="10" stroke-linecap="round" stroke-linejoin="round"/>
</g>
</g>
</svg>
