<svg width="18" height="18" viewBox="0 0 18 18" fill="none" xmlns="http://www.w3.org/2000/svg">
<path d="M9 17.4736C7.83236 17.4736 6.73665 17.2523 5.71289 16.8096C4.68913 16.3724 3.78988 15.7664 3.01514 14.9917C2.2404 14.2114 1.63167 13.3122 1.18896 12.2939C0.75179 11.2702 0.533203 10.1745 0.533203 9.00684C0.533203 7.83919 0.75179 6.74349 1.18896 5.71973C1.63167 4.69596 2.2404 3.79671 3.01514 3.02197C3.78988 2.24723 4.68913 1.64128 5.71289 1.2041C6.73665 0.761393 7.83236 0.540039 9 0.540039C10.1676 0.540039 11.2633 0.761393 12.2871 1.2041C13.3109 1.64128 14.2101 2.24723 14.9849 3.02197C15.7596 3.79671 16.3656 4.69596 16.8027 5.71973C17.2454 6.74349 17.4668 7.83919 17.4668 9.00684C17.4668 10.1745 17.2454 11.2702 16.8027 12.2939C16.3656 13.3122 15.7596 14.2114 14.9849 14.9917C14.2101 15.7664 13.3109 16.3724 12.2871 16.8096C11.2633 17.2523 10.1676 17.4736 9 17.4736ZM6.21094 12.4932C6.41016 12.4932 6.57894 12.4268 6.71729 12.2939L9.0083 9.98633L11.3076 12.2939C11.4349 12.4268 11.5981 12.4932 11.7974 12.4932C11.991 12.4932 12.1543 12.4268 12.2871 12.2939C12.4199 12.1556 12.4863 11.9924 12.4863 11.8042C12.4863 11.5994 12.4199 11.4362 12.2871 11.3145L9.97949 9.01514L12.2954 6.70752C12.4282 6.56917 12.4946 6.40592 12.4946 6.21777C12.4946 6.02962 12.4282 5.86914 12.2954 5.73633C12.1626 5.60352 12.0021 5.53711 11.814 5.53711C11.6313 5.53711 11.4736 5.60352 11.3408 5.73633L9.0083 8.05225L6.69238 5.74463C6.55404 5.61735 6.39355 5.55371 6.21094 5.55371C6.02279 5.55371 5.8623 5.62012 5.72949 5.75293C5.59668 5.88021 5.53027 6.04069 5.53027 6.23438C5.53027 6.41699 5.59668 6.57747 5.72949 6.71582L8.03711 9.01514L5.72949 11.3228C5.59668 11.4556 5.53027 11.616 5.53027 11.8042C5.53027 11.9924 5.59668 12.1556 5.72949 12.2939C5.8623 12.4268 6.02279 12.4932 6.21094 12.4932Z" fill="#3C3C43" fill-opacity="0.6"/>
</svg>
