<svg width="16" height="17" viewBox="0 0 16 17" fill="none" xmlns="http://www.w3.org/2000/svg">
<path d="M8.00052 9.43334L4.73385 12.7C4.61163 12.8222 4.45608 12.8833 4.26719 12.8833C4.0783 12.8833 3.92274 12.8222 3.80052 12.7C3.6783 12.5778 3.61719 12.4222 3.61719 12.2333C3.61719 12.0444 3.6783 11.8889 3.80052 11.7667L7.06719 8.5L3.80052 5.23334C3.6783 5.11111 3.61719 4.95556 3.61719 4.76667C3.61719 4.57778 3.6783 4.42222 3.80052 4.3C3.92274 4.17778 4.0783 4.11667 4.26719 4.11667C4.45608 4.11667 4.61163 4.17778 4.73385 4.3L8.00052 7.56667L11.2672 4.3C11.3894 4.17778 11.545 4.11667 11.7339 4.11667C11.9227 4.11667 12.0783 4.17778 12.2005 4.3C12.3227 4.42222 12.3839 4.57778 12.3839 4.76667C12.3839 4.95556 12.3227 5.11111 12.2005 5.23334L8.93385 8.5L12.2005 11.7667C12.3227 11.8889 12.3839 12.0444 12.3839 12.2333C12.3839 12.4222 12.3227 12.5778 12.2005 12.7C12.0783 12.8222 11.9227 12.8833 11.7339 12.8833C11.545 12.8833 11.3894 12.8222 11.2672 12.7L8.00052 9.43334Z"/>
</svg>
