<svg width="23" height="23" viewBox="0 0 23 23" fill="none" xmlns="http://www.w3.org/2000/svg">
<g id="edit">
<g id="Vector">
<path d="M18.116 4.88764C16.2898 3.06139 14.5012 3.01432 12.6279 4.88764L11.4888 6.02669C11.3947 6.12082 11.3571 6.27144 11.3947 6.40323C12.1101 8.89785 14.1058 10.8935 16.6005 11.609C16.6381 11.6184 16.6758 11.6278 16.7134 11.6278C16.817 11.6278 16.9111 11.5901 16.9864 11.5148L18.116 10.3758C19.048 9.45325 19.4999 8.55896 19.4999 7.65525C19.5093 6.7233 19.0574 5.81959 18.116 4.88764Z" fill="white"/>
<path d="M14.9057 12.4648C14.6327 12.3331 14.3691 12.2013 14.115 12.0506C13.9079 11.9283 13.7102 11.7965 13.5125 11.6553C13.3525 11.5517 13.1642 11.4011 12.9853 11.2505C12.9665 11.2411 12.9006 11.1846 12.8253 11.1093C12.5147 10.8457 12.1663 10.5068 11.8557 10.1302C11.8275 10.1114 11.7804 10.0455 11.7145 9.9608C11.6204 9.84783 11.4603 9.65956 11.3191 9.44305C11.2062 9.30184 11.0744 9.09474 10.952 8.88764C10.8014 8.63347 10.6696 8.37931 10.5378 8.11572C10.5178 8.073 10.4985 8.03047 10.4799 7.98821C10.3409 7.67443 9.93174 7.5827 9.68915 7.82534L4.29656 13.2179C4.17418 13.3403 4.06122 13.5757 4.03298 13.7357L3.52464 17.3411C3.43051 17.9812 3.60937 18.5837 4.00474 18.9885C4.34363 19.318 4.81431 19.4968 5.32265 19.4968C5.43561 19.4968 5.54858 19.4874 5.66154 19.4686L9.27638 18.9603C9.44582 18.932 9.68114 18.8191 9.79411 18.6967L15.1799 13.3108C15.4243 13.0665 15.3322 12.6472 15.0143 12.5115C14.9786 12.4963 14.9423 12.4807 14.9057 12.4648Z" fill="white"/>
</g>
</g>
</svg>
