<svg width="153" height="176" viewBox="0 0 153 176" fill="none" xmlns="http://www.w3.org/2000/svg">
<path d="M89.1965 25.4126C87.9709 25.3387 86.7486 25.257 85.523 25.1973C84.5284 25.1486 83.7145 24.3426 83.738 23.3291C83.7616 22.3518 84.6117 21.4955 85.6078 21.5442C86.8334 21.6024 88.0558 21.6856 89.2814 21.7595C90.276 21.8192 91.0898 22.6048 91.0663 23.6277C91.0443 24.5641 90.2461 25.4157 89.2939 25.4157C89.2609 25.4157 89.2295 25.4142 89.1965 25.4126Z" />
<path d="M82.104 38.4224C81.9374 37.9809 81.9484 37.4796 82.137 37.0475C82.3381 36.5809 82.7089 36.2666 83.1646 36.0655C84.244 35.5879 85.325 35.0819 86.4343 34.6781C87.3692 34.3387 88.436 34.7975 88.7911 35.7387C89.1415 36.6595 88.667 37.7562 87.7306 38.0971C86.6213 38.4994 85.5402 39.0069 84.4624 39.483C84.2581 39.5725 84.046 39.6134 83.8323 39.6134C83.0954 39.6149 82.368 39.1153 82.104 38.4224Z" />
<path d="M119.804 55.3209C118.953 55.2926 118.104 55.2517 117.254 55.2062C116.809 55.1826 116.368 55.148 115.925 55.1056C115.04 55.0208 114.253 54.6877 113.543 54.1645C113.035 53.7905 112.613 53.2798 112.237 52.7771C111.961 52.4062 111.7 52.0197 111.461 51.6253C111.013 50.8837 110.66 50.1107 110.419 49.2779C110.286 49.0171 110.21 48.7217 110.21 48.4122C110.21 48.4059 110.21 48.4012 110.21 48.3949C110.209 48.3855 110.207 48.376 110.204 48.3666C110.202 48.3635 110.201 48.3587 110.199 48.3556C110.172 48.3085 110.146 48.2613 110.121 48.2142C109.973 48.0005 109.819 47.7962 109.657 47.5936C108.405 46.2046 107.044 44.9225 105.782 43.5429C105.319 43.0354 104.86 42.5295 104.415 42.0031C103.567 41.0007 102.825 39.9259 102.139 38.8057C100.696 36.4472 99.6593 33.8233 98.9916 31.1459C98.3474 28.5706 98.1353 25.8697 98.2688 23.2237C98.4008 20.6344 98.8895 18.034 99.7929 15.6017C100.244 14.3856 100.792 13.2181 101.424 12.0868C102.114 10.844 102.957 9.69857 103.844 8.58928C104.659 7.56955 105.561 6.60639 106.483 5.68093C107.413 4.74605 108.477 3.95414 109.604 3.27537C110.722 2.60131 111.907 2.03096 113.128 1.57216C114.421 1.0835 115.786 0.783397 117.147 0.558711C118.255 0.376448 119.363 0.238184 120.483 0.158051C122.698 -0.00535732 124.904 0.151762 127.051 0.744116C128.27 1.08193 129.423 1.61458 130.555 2.17237C131.139 2.46147 131.7 2.78515 132.247 3.13868C132.858 3.53149 133.406 4.00443 133.95 4.48365C135.191 5.57566 136.288 6.78865 137.276 8.11477C137.627 8.583 137.963 9.06537 138.283 9.55559C138.899 10.4983 139.39 11.5212 139.787 12.5755C140.053 13.2841 140.31 13.9896 140.524 14.7155C140.813 15.6944 140.959 16.7361 141.041 17.7511C141.121 18.7347 141.19 19.7293 141.146 20.7161C141.123 21.2518 141.099 21.7876 141.075 22.3219C141.047 22.9315 140.967 23.5443 140.914 24.1508C140.832 25.0731 140.672 25.9923 140.513 26.9036C140.35 27.8353 140.172 28.7733 139.935 29.6894C139.672 30.7059 139.39 31.71 139.093 32.7171C138.517 34.6623 137.771 36.5619 137.004 38.4364C136.649 39.3037 136.242 40.1569 135.795 40.9818C135.323 41.8491 134.781 42.6772 134.225 43.4958C133.403 44.7119 132.5 45.8715 131.639 47.0609C131.145 47.7805 130.683 48.508 130.272 49.2779C129.912 50.0195 129.572 50.7722 129.244 51.5279C129.063 51.9427 128.872 52.3481 128.656 52.7488C128.202 53.5972 127.407 54.2713 126.532 54.6484C125.28 55.1889 123.919 55.324 122.569 55.3523C122.324 55.357 122.079 55.3586 121.834 55.3586C121.159 55.3617 120.481 55.3444 119.804 55.3209ZM122.719 51.6992C123.179 51.674 123.635 51.6426 124.094 51.5798C124.293 51.5405 124.491 51.4949 124.688 51.4431C124.829 51.3959 124.967 51.3441 125.105 51.2875C125.143 51.2687 125.179 51.2482 125.217 51.2294C125.241 51.2121 125.264 51.1964 125.288 51.1791C125.303 51.165 125.319 51.1493 125.335 51.1351C125.366 51.0943 125.399 51.055 125.431 51.0141C125.487 50.9214 125.542 50.8287 125.596 50.7344C125.93 50.0195 126.226 49.2889 126.56 48.574C126.958 47.724 127.388 46.9038 127.882 46.1072C128.82 44.5941 129.957 43.2035 130.996 41.758C131.647 40.7948 132.266 39.8175 132.825 38.7978C133.681 36.9815 134.404 35.1211 135.083 33.2325C135.336 32.4563 135.589 31.6801 135.82 30.8961C136.054 30.1073 136.26 29.3138 136.464 28.5172C136.682 27.4849 136.882 26.4558 137.066 25.4172C137.264 24.2922 137.341 23.142 137.443 22.006C137.435 22.083 137.429 22.1616 137.421 22.2386C137.446 21.6714 137.473 21.1042 137.498 20.5385C137.518 20.0609 137.493 19.5769 137.484 19.0961C137.424 18.3529 137.366 17.6129 137.256 16.8744C137.165 16.37 137.052 15.8735 136.913 15.3802C136.64 14.5474 136.329 13.7241 135.974 12.9227C135.765 12.4875 135.54 12.0633 135.29 11.6516C134.745 10.822 134.159 10.0144 133.53 9.24448C132.925 8.54686 132.275 7.91994 131.606 7.2883C131.191 6.92377 130.771 6.57182 130.322 6.24972C129.899 5.97789 129.47 5.72964 129.029 5.49553C128.315 5.14514 127.599 4.8089 126.856 4.52607C126.32 4.34224 125.78 4.18512 125.228 4.05628C124.653 3.94315 124.078 3.8583 123.495 3.80017C122.813 3.75303 122.134 3.73889 121.451 3.75303C120.915 3.78917 120.373 3.80174 119.84 3.87087C119.121 3.96672 118.399 4.05628 117.683 4.17098C116.789 4.3281 115.909 4.52608 115.039 4.78219C114.454 4.97545 113.885 5.19542 113.323 5.4421C112.572 5.80192 111.838 6.19629 111.123 6.62524C110.68 6.91435 110.257 7.22545 109.846 7.56012C109.112 8.19962 108.443 8.89567 107.784 9.61058C106.973 10.5125 106.211 11.4521 105.507 12.4404C105.014 13.171 104.568 13.9268 104.156 14.7077C103.782 15.4634 103.451 16.2333 103.157 17.0252C102.868 17.8643 102.627 18.7143 102.426 19.5785C102.208 20.6234 102.057 21.6776 101.958 22.7398C101.886 23.7187 101.865 24.6928 101.897 25.6733C101.95 26.6883 102.054 27.6939 102.211 28.6979C102.385 29.6705 102.61 30.629 102.888 31.578C103.204 32.5679 103.573 33.5357 103.991 34.4879C104.437 35.4511 104.932 36.3828 105.484 37.291C106.001 38.1017 106.56 38.8795 107.171 39.6243C108.303 40.9488 109.522 42.1932 110.748 43.4314C111.283 43.9734 111.803 44.5249 112.311 45.0906C112.842 45.6814 113.298 46.3334 113.613 47.064C113.753 47.3862 113.819 47.7365 113.844 48.0869C113.887 48.1812 113.925 48.2786 113.953 48.3823C113.959 48.4012 113.964 48.4216 113.969 48.4404C114.033 48.6321 114.105 48.8191 114.182 49.0045C114.321 49.2873 114.473 49.5623 114.635 49.8326C114.883 50.2144 115.145 50.5836 115.43 50.9387C115.524 51.0408 115.621 51.1383 115.72 51.2357C115.76 51.2687 115.799 51.3001 115.84 51.3315C115.859 51.3425 115.878 51.3551 115.895 51.3676C115.922 51.3802 115.948 51.3944 115.977 51.4069C116.002 51.4148 116.028 51.4242 116.055 51.4321C116.261 51.4682 116.467 51.4965 116.674 51.5185C118.687 51.6536 120.708 51.7353 122.719 51.6992Z" />
<path d="M120.527 69.5043C119.493 69.3864 118.484 69.1539 117.498 68.8271C117.039 68.6763 116.593 68.4893 116.16 68.2787C115.328 67.8749 114.534 67.4365 113.811 66.8536C112.961 66.1701 112.289 65.2494 111.968 64.203C111.676 63.2524 111.764 62.0865 112.272 61.216C112.757 60.3801 113.529 59.8035 114.391 59.3934C114.124 58.9833 113.903 58.5434 113.717 58.0893C113.463 57.4624 113.395 56.7914 113.375 56.1237C113.356 55.5015 113.543 54.8777 113.7 54.2806C113.978 53.2138 114.512 52.0432 115.584 51.5922C116.501 51.2073 117.598 51.7478 117.942 52.6528C118.219 53.3819 117.988 54.1471 117.455 54.6404C117.395 54.7693 117.342 54.8981 117.292 55.0317C117.213 55.2862 117.147 55.5439 117.08 55.8031C117.097 55.7262 117.113 55.6507 117.13 55.5737C117.088 55.7434 117.056 55.9147 117.032 56.0875C117.029 56.1551 117.028 56.2227 117.028 56.2887C117.036 56.3562 117.044 56.4238 117.051 56.4898C117.066 56.5573 117.081 56.6233 117.099 56.6893C117.132 56.7883 117.169 56.8842 117.208 56.98C117.259 57.0806 117.311 57.1795 117.369 57.277C117.438 57.3822 117.512 57.4844 117.587 57.5849C117.818 57.8473 118.063 58.094 118.316 58.3375C118.453 58.4585 118.591 58.5779 118.733 58.6942C120.494 58.6486 122.257 58.7021 124.001 58.9927C125.211 59.1954 126.76 59.6495 127.242 60.9206C127.467 61.5114 127.439 62.1698 127.132 62.7213C126.785 63.3498 126.198 63.8023 125.506 63.9971C124.537 64.2737 123.528 64.2171 122.538 64.1087C121.63 64.0097 120.745 63.8101 119.886 63.4975C119.485 63.3513 119.096 63.1596 118.709 62.9774C118.337 62.7998 117.977 62.605 117.628 62.3913C117.281 62.4133 116.935 62.4416 116.589 62.4903C116.472 62.5139 116.355 62.5422 116.241 62.5752C116.088 62.627 115.939 62.6883 115.794 62.7621C115.867 62.7291 115.939 62.6961 116.011 62.6631C115.903 62.7181 115.794 62.7778 115.689 62.8391C115.618 62.8863 115.548 62.9365 115.48 62.9868C115.477 62.9978 115.474 63.0104 115.471 63.0214C115.466 63.0481 115.461 63.0748 115.457 63.0999C115.457 63.1031 115.457 63.1062 115.455 63.1094C115.457 63.1204 115.457 63.1329 115.458 63.1439C115.471 63.1785 115.483 63.2146 115.497 63.2476C115.537 63.3215 115.576 63.3938 115.615 63.4676C115.661 63.5352 115.708 63.5996 115.758 63.664C115.824 63.7394 115.893 63.8117 115.966 63.8824C116.118 64.0128 116.272 64.137 116.432 64.2579C116.704 64.4371 116.984 64.5989 117.271 64.7545C117.67 64.9477 118.068 65.1284 118.478 65.2997C118.998 65.4678 119.517 65.6108 120.048 65.7349C120.36 65.7915 120.668 65.837 120.983 65.8763C121.457 65.8936 121.928 65.8952 122.401 65.881C122.823 65.8512 123.24 65.8119 123.66 65.7585C124.271 65.6422 124.875 65.4992 125.473 65.3358C126.433 65.0718 127.451 65.749 127.674 66.6902C127.91 67.6832 127.279 68.6275 126.318 68.8915C125.391 69.1461 124.45 69.3676 123.492 69.4587C122.892 69.5169 122.277 69.5609 121.668 69.5609C121.283 69.564 120.902 69.5467 120.527 69.5043Z" />
<path d="M126.328 52.7942C125.448 52.414 124.936 51.2843 125.377 50.3903C126.128 48.8709 126.744 47.2886 127.324 45.6954C127.814 44.2405 128.223 42.7776 128.562 41.2818C129.008 38.9847 129.304 36.6703 129.549 34.3448C129.598 33.6833 129.646 33.0234 129.673 32.3619C129.7 31.6376 129.698 30.918 129.692 30.1936C129.659 29.6264 129.626 29.0608 129.568 28.4951C129.503 27.8823 129.419 27.2759 129.331 26.6646C129.265 26.3331 129.197 26.0016 129.131 25.6685C129.068 25.3574 128.968 25.0494 128.876 24.743C128.686 24.179 128.498 23.618 128.27 23.0681C128.171 22.8638 128.064 22.6659 127.951 22.4679C127.832 22.2888 127.708 22.1175 127.576 21.9478C127.495 21.8582 127.411 21.7718 127.324 21.6885C127.274 21.6446 127.222 21.6037 127.17 21.5628C127.112 21.5267 127.054 21.4906 126.997 21.456C127.027 21.4717 127.057 21.4859 127.087 21.5016C127.081 21.4969 127.076 21.4937 127.07 21.489C127.022 21.4654 126.977 21.445 126.928 21.4246C126.909 21.4199 126.889 21.4152 126.87 21.4104C126.854 21.4073 126.837 21.4057 126.821 21.4026C126.818 21.4026 126.815 21.4026 126.812 21.4026C126.809 21.4026 126.804 21.4042 126.804 21.4042C126.795 21.4057 126.785 21.4073 126.776 21.4104C126.763 21.4152 126.752 21.4183 126.74 21.423C126.732 21.4277 126.722 21.4324 126.715 21.4372C126.669 21.4701 126.625 21.5016 126.582 21.5346C126.551 21.5644 126.52 21.5943 126.49 21.6241C126.378 21.7561 126.273 21.8912 126.171 22.0311C126.003 22.295 125.846 22.5637 125.696 22.8371C125.56 23.1184 125.429 23.4028 125.302 23.6872C125.574 24.2009 125.803 24.7367 125.995 25.2898C126.238 25.9953 126.394 26.7212 126.557 27.4471C126.79 28.492 126.911 29.551 126.955 30.621C127.004 31.7743 126.955 32.9229 126.889 34.073C126.834 35.0362 126.652 35.9899 126.476 36.9374C126.27 38.0435 125.912 39.1261 125.335 40.094C124.776 41.0351 123.794 41.86 122.684 42.0093C121.694 42.1413 120.626 41.805 119.928 41.0713C119.561 40.6863 119.267 40.2699 119.028 39.7939C118.75 39.2408 118.593 38.6139 118.495 38.0042C118.299 36.7755 118.36 35.5185 118.467 34.2835C118.558 33.2355 118.736 32.186 118.99 31.1646C119.129 30.61 119.267 30.0569 119.405 29.5023C119.537 28.9744 119.713 28.4543 119.865 27.9326C120.118 27.0794 120.404 26.2341 120.7 25.3935C120.854 24.9583 121.009 24.5246 121.173 24.0925C120.964 23.8553 120.747 23.629 120.519 23.4106C120.31 23.2315 120.101 23.0587 119.883 22.8905C119.834 22.8591 119.784 22.8293 119.732 22.7994C119.715 22.7916 119.697 22.7837 119.68 22.7758C119.65 22.7806 119.62 22.7837 119.591 22.7884C119.57 22.7947 119.55 22.7994 119.529 22.8041C119.507 22.8136 119.484 22.823 119.462 22.8324C119.433 22.8481 119.407 22.8654 119.378 22.8811C119.352 22.9015 119.325 22.9204 119.297 22.9408C119.264 22.9722 119.231 23.0021 119.198 23.0351C119.119 23.1278 119.044 23.2236 118.973 23.3211C118.888 23.4578 118.811 23.596 118.736 23.7374C118.532 24.168 118.365 24.6095 118.198 25.0557C117.824 26.1791 117.488 27.3073 117.172 28.448C116.858 29.5903 116.61 30.7514 116.351 31.9047C116.219 32.6228 116.087 33.3424 115.955 34.0604C115.893 34.4014 115.871 34.7565 115.829 35.1006C115.783 35.4761 115.739 35.8532 115.694 36.2303C115.644 36.9939 115.595 37.7544 115.543 38.518C115.518 38.9108 115.54 39.3131 115.538 39.7059C115.537 40.0704 115.535 40.4334 115.534 40.7963C115.574 41.4012 115.615 42.0062 115.656 42.6095C115.694 43.15 115.794 43.6937 115.868 44.231C115.983 44.8469 116.098 45.4629 116.241 46.0741C116.398 46.734 116.585 47.3845 116.775 48.035C116.938 48.5708 117.1 49.1097 117.304 49.6313C117.829 50.4327 117.625 51.5451 116.844 52.1092C116.036 52.6952 114.878 52.5051 114.292 51.6991C113.926 51.1994 113.757 50.5882 113.566 50.0069C113.417 49.5465 113.276 49.0846 113.142 48.6195C112.869 47.6877 112.621 46.7513 112.445 45.7944C112.357 45.3246 112.264 44.8564 112.201 44.3819C112.135 43.8901 112.047 43.3967 112.012 42.9033C111.973 42.3094 111.931 41.7155 111.891 41.1216C111.858 40.6235 111.88 40.1207 111.882 39.621C111.885 39.2046 111.865 38.782 111.891 38.364C111.934 37.7025 111.979 37.0426 112.022 36.3811C112.085 35.4211 112.223 34.4642 112.339 33.5105C112.401 33.0014 112.526 32.4892 112.619 31.9848C112.701 31.5402 112.787 31.1002 112.889 30.6603C113.133 29.5903 113.386 28.5266 113.651 27.4628C113.873 26.5751 114.135 25.6873 114.426 24.82C114.589 24.3266 114.756 23.8349 114.937 23.3478C115.243 22.5166 115.623 21.7404 116.131 21.0113C116.684 20.2194 117.575 19.5485 118.51 19.294C119.015 19.1573 119.548 19.0756 120.071 19.1369C120.662 19.2076 121.159 19.4134 121.676 19.7009C122.075 19.9209 122.438 20.2257 122.78 20.5337C123.17 19.8753 123.627 19.2641 124.197 18.7613C124.892 18.1501 125.852 17.7086 126.793 17.74C127.272 17.7573 127.741 17.8233 128.19 17.9962C128.762 18.2161 129.266 18.5367 129.728 18.9405C130.577 19.6837 131.227 20.672 131.662 21.7058C131.915 22.3076 132.118 22.922 132.327 23.541C132.652 24.5073 132.855 25.5208 133.003 26.5295C133.15 27.5398 133.254 28.5485 133.314 29.5698C133.431 31.5559 133.304 33.5482 133.098 35.5217C132.691 39.4388 132.063 43.3386 130.716 47.053C130.129 48.6776 129.5 50.2913 128.737 51.8405C128.515 52.2867 128.182 52.645 127.708 52.8241C127.5 52.9026 127.28 52.9419 127.06 52.9419C126.807 52.9451 126.557 52.8948 126.328 52.7942ZM122.268 38.0954C122.348 37.9618 122.422 37.8251 122.489 37.6837C122.453 37.7544 122.417 37.8251 122.381 37.8958C122.471 37.7025 122.549 37.5046 122.617 37.3019C122.59 37.3757 122.563 37.4496 122.537 37.525C122.665 37.1243 122.775 36.7221 122.873 36.312C122.94 35.9443 123.01 35.5798 123.077 35.2121C123.153 34.8036 123.184 34.3825 123.231 33.9693C123.289 32.9401 123.336 31.9141 123.31 30.8818C123.288 30.4246 123.253 29.9705 123.2 29.5164C123.098 29.8464 122.999 30.1779 122.915 30.5126C122.76 31.1332 122.606 31.7539 122.45 32.3745C122.279 33.2371 122.148 34.1013 122.065 34.978C122.026 35.5751 122.015 36.1706 122.029 36.7677C122.046 37.0081 122.07 37.2437 122.104 37.481C122.137 37.6413 122.174 37.8 122.219 37.9587C122.196 37.8832 122.172 37.8078 122.15 37.7324C122.183 37.855 122.222 37.9759 122.268 38.0954Z" />
<path d="M93.1419 10.946C92.0923 10.8832 91.1087 10.6019 90.1393 10.2029C89.2232 9.82576 88.3182 9.42667 87.4242 8.99929C86.5254 8.57034 86.0682 7.53333 86.4736 6.59531C86.8585 5.70756 87.9804 5.21576 88.8776 5.64628C89.9397 6.15379 91.016 6.63615 92.119 7.05096C92.3532 7.12166 92.5841 7.18609 92.8183 7.24422C92.933 7.26151 93.0461 7.27722 93.1592 7.28979C93.1812 7.29136 93.2032 7.29293 93.2252 7.2945C94.2198 7.35264 95.0337 8.1414 95.0117 9.1627C94.9897 10.0992 94.1915 10.9508 93.2378 10.9508C93.2063 10.9492 93.1733 10.9476 93.1419 10.946Z" />
<path d="M143.271 8.52965C142.681 7.71732 142.879 6.56875 143.681 5.97797C143.894 5.81928 144.127 5.68415 144.353 5.54431C144.303 5.57573 144.253 5.60716 144.202 5.63858C144.584 5.39976 144.971 5.17193 145.363 4.95353C146.232 4.46959 147.373 4.83097 147.84 5.69829C148.316 6.58289 147.965 7.69218 147.095 8.17455C146.782 8.34896 146.471 8.53122 146.165 8.71663C146.154 8.72291 146.143 8.73077 146.132 8.73705C146.028 8.80305 145.923 8.86904 145.824 8.94132C145.51 9.17386 145.139 9.28384 144.77 9.28384C144.193 9.28227 143.622 9.0183 143.271 8.52965Z" />
<path d="M147.811 23.9104C147.513 23.8978 147.213 23.857 146.914 23.857C145.918 23.857 145.107 22.9661 145.129 21.9888C145.153 20.9769 146.003 20.2039 146.997 20.2039C147.246 20.2039 147.495 20.2384 147.744 20.2494C148.143 20.2667 148.543 20.273 148.944 20.2714C149.701 20.2698 150.457 20.2557 151.215 20.2259C152.209 20.1866 153.022 21.1466 153 22.0956C152.989 22.578 152.783 23.0415 152.434 23.3746C152.068 23.7234 151.623 23.8601 151.13 23.8805C150.372 23.9104 149.617 23.9245 148.859 23.9277C148.511 23.9277 148.162 23.9261 147.811 23.9104Z" />
<path d="M148.996 42.1902C148.058 42.0189 147.118 41.8461 146.19 41.6308C145.783 41.535 145.378 41.4313 144.974 41.3244C144.575 41.2176 144.213 41.0652 143.919 40.7604C143.646 40.4728 143.446 40.0816 143.42 39.6841C143.351 38.691 144.029 37.7813 145.046 37.676C145.305 37.6493 145.564 37.6823 145.808 37.764C146.393 37.9274 146.982 38.0704 147.573 38.2024C148.229 38.3344 148.888 38.4585 149.544 38.5795C150.523 38.7586 151.229 39.6558 151.076 40.6629C150.946 41.5287 150.159 42.22 149.29 42.22C149.192 42.2169 149.095 42.2075 148.996 42.1902Z" />
<path d="M144.747 59.6356C143.967 59.0338 143.19 58.4179 142.453 57.7658C142.031 57.3919 141.629 57.0069 141.24 56.5984C140.642 55.9683 140.038 55.2361 140.038 54.3248C140.038 53.3287 140.929 52.5179 141.908 52.5383C142.666 52.5556 143.286 53.0349 143.553 53.6916C143.577 53.7246 143.602 53.7576 143.627 53.7906C143.916 54.1159 144.221 54.4238 144.532 54.7302C145.341 55.4388 146.174 56.1207 147.027 56.7775C147.816 57.3856 147.932 58.5782 147.318 59.3465C146.958 59.7974 146.429 60.0268 145.893 60.0268C145.489 60.0237 145.085 59.8964 144.747 59.6356Z" />
<path d="M34.1845 83.6079C33.1867 83.5796 32.1843 83.4837 31.1913 83.3753C30.2281 83.2716 29.2555 83.1663 28.3018 82.9841C26.3016 82.6007 24.2826 82.2079 22.3814 81.4568C21.4166 81.075 20.4629 80.6712 19.5563 80.1653C19.1525 79.939 18.7361 79.7285 18.3496 79.4739C17.7745 79.0968 17.1948 78.726 16.6338 78.3254C14.5457 76.8358 12.613 75.0242 11.2634 72.8261C9.88538 70.5839 8.84834 68.0982 8.34712 65.5135C8.13814 64.4325 7.99203 63.3264 7.95589 62.2249C7.93547 61.6263 7.91504 61.0292 7.89461 60.4306C7.86633 59.6151 7.88517 58.8044 7.92602 57.9873C7.98573 56.8152 8.08472 55.6116 8.31255 54.4599C8.51366 53.4386 8.69281 52.4158 8.9662 51.4117C9.1139 50.8712 9.26003 50.3292 9.40773 49.7886C9.55228 49.2591 9.74552 48.7375 9.9325 48.2221C10.2059 47.4679 10.5076 46.7279 10.8407 45.9988C11.3529 44.8707 11.9751 43.7944 12.679 42.7747C13.4395 41.6717 14.3178 40.6598 15.2275 39.6793C15.6109 39.2645 16.0226 38.8764 16.4248 38.4821C16.7265 38.1851 17.0188 37.8803 17.3362 37.6022C18.1375 36.903 18.9262 36.1912 19.7621 35.5344C20.2587 35.1448 20.7552 34.7551 21.2517 34.3639C21.5769 34.1078 21.9304 33.8846 22.2714 33.6489C22.7223 33.3363 23.1733 33.0236 23.6242 32.7109C24.1474 32.348 24.7272 32.0542 25.2756 31.7336C25.6228 31.5309 25.9622 31.3188 26.322 31.1381C26.9238 30.8364 27.524 30.5348 28.1274 30.2331C29.0843 29.7523 30.0898 29.3532 31.0891 28.9714C32.0413 28.6053 33.006 28.3303 34.0132 28.1606C34.494 28.0805 34.9842 28.0538 35.4729 28.0271C35.5954 28.0035 35.7227 27.9925 35.8515 27.9972C37.7842 28.0569 39.7199 28.1811 41.6462 28.357C43.6401 28.5377 45.5979 28.8504 47.5525 29.2746C48.4842 29.4789 49.4034 29.7727 50.3147 30.0508C51.2402 30.3321 52.1531 30.6699 53.0503 31.0328C54.015 31.4225 54.942 31.8719 55.8675 32.348C56.2383 32.5397 56.5871 32.7801 56.9406 32.9985C57.3696 33.2609 57.7922 33.5531 58.1992 33.8485C58.9534 34.3984 59.7249 34.9374 60.4162 35.5659C60.7964 35.9115 61.2034 36.2415 61.5632 36.6091C61.9042 36.9595 62.2718 37.2942 62.5861 37.6666C63.2382 38.4365 63.9106 39.2033 64.4527 40.058C65.0026 40.9285 65.5588 41.7942 66.0271 42.7102C66.5204 43.6734 66.9604 44.6507 67.3626 45.6579C67.7366 46.5975 68.0162 47.5638 68.2959 48.5348C68.4185 48.9606 68.4908 49.4053 68.5866 49.8389C68.6432 50.0997 68.673 50.3731 68.7139 50.6387C68.7516 50.8948 68.8097 51.1525 68.8302 51.4117C68.871 51.9271 68.9275 52.4409 68.9464 52.9578C68.9983 54.3735 68.8899 55.7609 68.6526 57.1562C68.2221 59.6953 67.5041 62.1857 66.3586 64.4985C65.9218 65.38 65.4269 66.2332 64.8581 67.0361C64.569 67.4414 64.2971 67.8688 63.9845 68.2553C63.3198 69.0771 62.6568 69.9161 61.9089 70.6656C60.5168 72.0609 59.087 73.4105 57.5471 74.6471C56.0073 75.8821 54.4125 77.048 52.7502 78.1148C52.3024 78.4024 51.853 78.6899 51.4036 78.979C50.8851 79.3121 50.3399 79.6075 49.8072 79.9186C47.895 81.0326 45.8634 81.8528 43.7266 82.4231C43.1798 82.5693 42.6236 82.6808 42.0705 82.805C41.7531 82.8772 41.4169 82.9747 41.0822 83.0139C40.9125 83.0469 40.7381 83.0689 40.5684 83.0988C40.1033 83.1773 39.6382 83.2559 39.1732 83.336C39.1244 83.347 39.0757 83.3549 39.0254 83.3612C38.9673 83.3706 38.9076 83.3816 38.8494 83.391C38.8023 83.3989 38.7568 83.4052 38.7096 83.4083C38.6421 83.4177 38.5729 83.4272 38.5038 83.435C37.4118 83.5717 36.3166 83.6283 35.2199 83.6283C34.8742 83.6236 34.5301 83.6189 34.1845 83.6079ZM36.2334 79.961C36.9561 79.9202 37.6726 79.851 38.3891 79.7631C38.4079 79.7599 38.4252 79.7583 38.4441 79.7552C38.8699 79.6829 39.2957 79.6106 39.723 79.5384C40.0357 79.4849 40.3641 79.4001 40.6878 79.3671C40.7239 79.3577 40.7601 79.3498 40.7978 79.342C41.7908 79.1204 42.7791 78.9036 43.758 78.6208C44.5562 78.3678 45.3355 78.0708 46.1022 77.7314C47.2414 77.1894 48.3177 76.5546 49.4081 75.9198C50.5378 75.1923 51.655 74.4539 52.7627 73.6934C53.8154 72.9706 54.8069 72.1614 55.8015 71.3648C56.3577 70.8777 56.9218 70.3969 57.4607 69.891C58.1096 69.2861 58.7381 68.6686 59.365 68.0417C59.8411 67.5137 60.3093 66.9842 60.7587 66.4311C61.1939 65.8938 61.593 65.3313 61.9921 64.7672C62.3661 64.1859 62.7133 63.5935 63.0339 62.9823C63.3827 62.2752 63.6922 61.5556 63.9687 60.8171C64.1243 60.3285 64.2798 59.8398 64.4354 59.3496C64.5799 58.8908 64.6711 58.4069 64.7795 57.9371C64.9681 56.9849 65.1566 56.0359 65.2572 55.068C65.3059 54.3955 65.3169 53.7277 65.298 53.0537C65.2634 52.6342 65.2289 52.2146 65.1943 51.7935C65.1629 51.4102 65.0859 51.0268 65.0215 50.645C64.9304 50.2333 64.8392 49.8216 64.7481 49.41C64.6695 49.047 64.547 48.6888 64.4386 48.3305C64.261 47.8215 64.0866 47.3108 63.8855 46.808C63.6797 46.2895 63.4581 45.7789 63.2303 45.2698C62.8469 44.5234 62.4494 43.7944 62.0346 43.0653C61.835 42.7495 61.6355 42.4337 61.4375 42.1179C61.1955 41.7361 60.9048 41.3794 60.6377 41.0117C60.3832 40.7116 60.1287 40.4131 59.8757 40.113C59.5835 39.7658 59.2362 39.4562 58.9172 39.1326C58.4631 38.7209 58.0091 38.3139 57.533 37.9258C57.0302 37.5173 56.5132 37.1402 55.9916 36.7584C55.5736 36.4772 55.1557 36.1912 54.7268 35.9257C54.2397 35.6256 53.7447 35.36 53.2404 35.0976C52.2536 34.6577 51.2638 34.2507 50.2487 33.8768C48.8001 33.396 47.3451 32.9717 45.8572 32.6386C44.1618 32.3213 42.4617 32.0981 40.7444 31.9379C39.1559 31.8122 37.5626 31.71 35.9709 31.6566C35.4069 31.6928 34.846 31.7305 34.2866 31.8153C33.9724 31.8782 33.666 31.9567 33.358 32.0447C32.1654 32.4328 31.0232 32.9356 29.8793 33.4431C29.5446 33.6112 29.2115 33.7778 28.8769 33.9459C28.528 34.1203 28.1604 34.2774 27.8241 34.4754C27.1108 34.8949 26.3959 35.3129 25.6826 35.7324C24.9582 36.2336 24.2354 36.7349 23.5111 37.2361C23.1937 37.4576 22.8968 37.7184 22.5935 37.9573C22.2243 38.2479 21.855 38.5371 21.4873 38.8277C20.8856 39.3541 20.2806 39.8805 19.6804 40.4068C19.3348 40.7085 19.0205 41.0573 18.6953 41.3794C18.326 41.7455 17.9599 42.1069 17.6064 42.4856C16.9371 43.2272 16.3023 43.9971 15.7131 44.8078C15.2653 45.4693 14.8583 46.1497 14.4859 46.8552C14.0539 47.7319 13.6736 48.6275 13.3358 49.5435C12.943 50.6827 12.6366 51.8423 12.3208 53.005C12.2218 53.5046 12.1244 54.0027 12.0254 54.5023C11.8494 55.3948 11.73 56.292 11.6404 57.1986C11.5556 58.2544 11.5038 59.3135 11.5415 60.3709C11.5619 60.9523 11.5823 61.5336 11.6012 62.115C11.6593 62.91 11.741 63.6972 11.8682 64.4844C11.9861 65.1223 12.1291 65.7508 12.3067 66.373C12.5706 67.1869 12.8801 67.9804 13.2242 68.7629C13.5809 69.5218 13.9721 70.2602 14.4074 70.9783C14.6996 71.4261 15.0123 71.855 15.347 72.2714C15.7775 72.7695 16.2284 73.2424 16.7077 73.695C17.4587 74.3627 18.2381 74.9849 19.052 75.571C19.4919 75.8585 19.9318 76.1476 20.3702 76.4352C20.763 76.6913 21.192 76.9034 21.6052 77.1281C22.0169 77.3229 22.4285 77.5178 22.8402 77.711C23.2267 77.8933 23.6383 78.0315 24.039 78.1855C24.5355 78.3395 25.0305 78.4935 25.527 78.6475C26.0597 78.8125 26.6174 78.9193 27.1626 79.0481C27.9954 79.2084 28.825 79.3687 29.6625 79.4959C30.5596 79.6311 31.4568 79.7332 32.3587 79.8322C33.655 79.9139 34.9355 79.9987 36.2334 79.961Z" />
<path d="M34.7501 52.6783C34.3149 52.4159 34.0525 52.0105 33.9111 51.5313C33.479 50.0638 33.2857 48.5381 33.171 47.0171C33.0516 45.4035 32.9589 43.7898 32.9589 42.1715C32.9589 41.1753 33.8498 40.3645 34.8286 40.3865C35.8405 40.4085 36.6136 41.2601 36.6136 42.2563C36.6136 42.7465 36.6214 43.2352 36.6308 43.7238C36.7078 45.4616 36.8115 47.1994 37.0598 48.9199C37.1698 49.517 37.297 50.103 37.4683 50.6875C37.7511 51.6428 37.0425 52.6673 36.1139 52.8888C35.9756 52.9218 35.8358 52.9375 35.6944 52.9375C35.3644 52.9375 35.0361 52.848 34.7501 52.6783Z" />
<path d="M42.4303 51.1949C42.124 49.5467 41.838 47.8953 41.5536 46.2455C41.3933 45.3185 41.233 44.3915 41.0838 43.466C41.0178 43.0543 40.966 42.6458 40.9125 42.2326C40.8591 41.8146 40.8135 41.3543 40.8748 40.9347C41.0209 39.948 41.9762 39.2551 42.9567 39.4028C43.8712 39.5411 44.5295 40.3644 44.5075 41.2663C44.5075 41.2616 44.5075 41.2568 44.5091 41.2521C44.5075 41.2883 44.5075 41.3244 44.5075 41.3605C44.5766 42.1807 44.7055 42.9883 44.8359 43.8022C44.8343 43.796 44.8343 43.7897 44.8327 43.7834C45.2098 45.9737 45.5807 48.1656 45.986 50.3511C46.074 50.8256 46.0269 51.2923 45.777 51.7134C45.5256 52.1313 45.1077 52.4409 44.6301 52.5524C44.4996 52.5839 44.3661 52.598 44.2326 52.598C43.4124 52.5964 42.5859 52.0386 42.4303 51.1949Z" />
<path d="M38.6389 71.9335C37.8407 71.8706 37.0645 71.7167 36.2805 71.569C35.0219 71.3333 33.7696 70.9719 32.5661 70.5398C31.3767 70.1124 30.2265 69.6191 29.1282 68.989C27.9278 68.2992 26.8531 67.4099 25.8679 66.4405C23.5991 64.2062 22.1567 61.2224 21.3381 58.1774C21.1526 57.486 20.9782 56.7947 20.8148 56.0986C20.6734 55.5031 20.554 54.8558 20.5666 54.2414C20.5854 53.2468 21.4418 52.4345 22.4364 52.4565C23.4294 52.4785 24.2323 53.3207 24.2213 54.309C24.2323 54.4142 24.2432 54.5195 24.2542 54.6248C24.4726 55.8079 24.7838 56.9706 25.1216 58.1255C25.3258 58.7603 25.5663 59.3762 25.8381 59.9843C26.1209 60.575 26.4257 61.1501 26.7635 61.711C27.0636 62.1746 27.3794 62.6192 27.7235 63.0529C28.0943 63.485 28.4856 63.8951 28.8973 64.2894C29.3262 64.6713 29.7709 65.0279 30.2359 65.3626C30.6665 65.6486 31.108 65.9141 31.562 66.1623C32.3021 66.5269 33.0657 66.8364 33.8404 67.1208C34.7611 67.4335 35.6881 67.6754 36.6262 67.919C37.3772 68.0604 38.1236 68.2034 38.8825 68.2914C39.2548 68.3165 39.6256 68.3259 40.0011 68.3228C40.5039 68.2961 41.0004 68.2442 41.4985 68.1657C41.9479 68.0761 42.3894 67.9708 42.8278 67.8436C43.2803 67.6927 43.7218 67.5246 44.1602 67.3345C44.7243 67.0658 45.2711 66.7673 45.8037 66.442C46.2767 66.1325 46.7339 65.8057 47.1786 65.4569C47.5274 65.1583 47.8605 64.8472 48.1794 64.5157C48.4214 64.2376 48.6508 63.9532 48.8708 63.6562C49.1505 63.2289 49.4034 62.7858 49.6407 62.3333C50.1419 61.301 50.5598 60.2404 50.9526 59.1625C51.446 57.6746 51.9252 56.1835 52.274 54.6546C52.3338 54.3435 52.3904 54.0324 52.4343 53.7198C52.5726 52.733 53.5389 52.0385 54.5162 52.1878C55.5092 52.3371 56.1864 53.2845 56.0482 54.2697C55.7748 56.2086 55.1557 58.0894 54.5413 59.9403C54.2286 60.8877 53.8626 61.8085 53.4839 62.7308C53.066 63.7442 52.5428 64.7357 51.9331 65.6454C51.1711 66.7846 50.1843 67.732 49.1159 68.5805C48.1668 69.3347 47.1015 69.9632 46.0158 70.4974C44.828 71.0819 43.56 71.4873 42.2606 71.7371C41.4247 71.8973 40.5762 71.9759 39.7262 71.9759C39.3648 71.9759 39.0018 71.9618 38.6389 71.9335Z" />
<path d="M34.3982 133.535C32.3949 133.469 30.3837 133.41 28.3914 133.182C27.6136 133.094 26.8453 133.003 26.0769 132.844C25.4909 132.723 24.93 132.556 24.3737 132.336C23.8348 132.124 23.3697 131.743 22.9832 131.32C22.3735 130.658 21.9949 129.768 21.8535 128.888C21.7686 128.361 21.7341 127.824 21.7058 127.293C21.4952 123.38 21.4685 119.451 21.4638 115.534C21.4591 111.64 21.5141 107.745 21.5958 103.852C21.6806 99.7774 21.7765 95.7079 21.9462 91.6384C22.0294 89.6445 22.141 87.6443 22.3107 85.6552C22.4081 84.5019 22.5102 83.3502 22.6218 82.1984C22.6721 81.6721 22.6862 81.0797 22.8512 80.5769C23.0319 80.027 23.4215 79.5493 23.9778 79.3482C24.9142 79.0104 25.9779 79.4661 26.3346 80.4088C26.4823 80.7969 26.4823 81.218 26.3629 81.6014C26.2419 82.4357 26.1807 83.2794 26.1005 84.1169C25.7753 88.0324 25.5694 91.9479 25.4469 95.876C25.3243 99.8182 25.2442 103.764 25.1829 107.707C25.0886 113.688 25.0808 119.672 25.2803 125.651C25.318 126.539 25.3353 127.439 25.461 128.319C25.4704 128.357 25.4799 128.394 25.4893 128.432C25.5223 128.528 25.5569 128.622 25.5946 128.716C25.6103 128.745 25.6244 128.773 25.6401 128.8C25.6574 128.823 25.6747 128.848 25.692 128.872C25.714 128.895 25.736 128.919 25.758 128.944C25.7611 128.947 25.7658 128.95 25.769 128.954C25.7926 128.966 25.8161 128.979 25.8397 128.991C25.8994 129.015 25.9607 129.038 26.0204 129.064C26.2577 129.137 26.4933 129.2 26.7337 129.258C27.6073 129.431 28.4872 129.526 29.3718 129.625C31.2306 129.753 33.0847 129.841 34.9466 129.903C36.7016 129.959 38.4551 129.926 40.207 129.873C41.8804 129.779 43.5443 129.658 45.2098 129.486C46.8722 129.313 48.522 129.049 50.1702 128.785C50.1247 128.793 50.0791 128.801 50.0335 128.809C51.7179 128.52 53.396 128.206 55.0756 127.893C56.7474 127.582 58.4255 127.316 60.1051 127.049C60.1884 127.034 60.2685 127.016 60.3503 126.999C60.3832 126.946 60.4147 126.892 60.4461 126.837C60.5278 126.652 60.6016 126.468 60.6723 126.281C60.7917 125.931 60.8923 125.579 60.9787 125.217C61.0714 124.711 61.139 124.202 61.194 123.692C61.2584 122.829 61.3181 121.969 61.3495 121.104C61.3904 120.032 61.403 118.962 61.414 117.889C61.4344 116.027 61.3464 114.164 61.2804 112.302C61.0714 108.345 60.82 104.395 60.4539 100.453C60.091 96.5501 59.6777 92.6503 59.2818 88.7505C58.9942 85.9097 58.7099 83.0689 58.4208 80.2297C58.1615 77.6623 57.8771 75.0965 57.6399 72.5275C57.5487 71.5361 58.2668 70.6232 59.2661 70.5179C60.2465 70.4158 61.183 71.1511 61.2757 72.1441C61.6025 75.6888 62 79.2241 62.3489 82.7672C62.715 86.491 63.1172 90.2117 63.4927 93.9355C63.895 97.928 64.2972 101.919 64.5658 105.922C64.6994 107.926 64.811 109.931 64.9178 111.936C64.9712 112.941 65.0152 113.951 65.0294 114.957C65.0435 115.927 65.0812 116.899 65.0702 117.87C65.0577 119.091 65.0388 120.309 64.9916 121.528C64.9728 122.02 64.9445 122.507 64.9068 122.995C64.8298 124.025 64.7544 125.052 64.5297 126.061C64.2673 127.241 63.8698 128.457 63.103 129.408C62.7856 129.802 62.3426 130.149 61.8712 130.338C61.4658 130.5 61.0636 130.594 60.6346 130.662C59.6338 130.82 58.6313 130.974 57.632 131.142C55.7874 131.466 53.9475 131.827 52.1044 132.159C50.0775 132.523 48.0396 132.819 45.9954 133.08C45.0731 133.198 44.1445 133.274 43.2175 133.345C42.2276 133.422 41.2362 133.496 40.2416 133.526C39.1198 133.56 37.9979 133.582 36.8776 133.582C36.0527 133.575 35.2262 133.562 34.3982 133.535Z" />
<path d="M69.4084 77.7235C67.9581 77.6748 66.5535 77.3684 65.1975 76.8577C63.9547 76.3911 62.7275 75.7799 61.6292 75.0335C60.8012 74.4695 60.0627 73.8064 59.3415 73.1182C59.2913 73.0758 59.2409 73.0365 59.1875 72.9972C59.1954 73.0019 59.2017 73.0066 59.2095 73.0098C58.7444 72.6735 58.4428 72.1362 58.4569 71.5061C58.4789 70.5414 59.3321 69.6583 60.3267 69.7212C60.842 69.7542 61.2239 69.9474 61.623 70.2617C61.9388 70.5084 62.2247 70.8132 62.517 71.0929C62.8752 71.4024 63.2413 71.6947 63.6247 71.9743C64.0379 72.2477 64.4622 72.4928 64.9005 72.7238C65.5479 73.0428 66.2015 73.3319 66.8771 73.588C67.1977 73.6933 67.5198 73.7828 67.8482 73.8614C68.2237 73.9337 68.5992 73.9902 68.9779 74.0342C69.5451 74.0766 70.1108 74.0892 70.6795 74.0766C71.253 74.0452 71.8203 73.9887 72.3859 73.9054C73.1291 73.7718 73.8581 73.5974 74.5825 73.3853C75.4199 73.1166 76.2385 72.8118 77.0477 72.4724C77.6087 72.21 78.168 71.9476 78.7305 71.6852C78.9961 71.5595 79.2506 71.393 79.5051 71.25C79.8147 71.0772 80.1226 70.9043 80.4321 70.7299C80.4054 70.7472 80.3772 70.7645 80.3505 70.7818C80.8611 70.4612 81.3733 70.1391 81.884 69.8202C81.8148 69.8626 81.7473 69.905 81.6782 69.949C82.1763 69.6363 82.6539 69.2891 83.1158 68.923C83.6626 68.4564 84.1748 67.9598 84.665 67.4351C85.4161 66.5944 86.098 65.7004 86.7784 64.8032C86.7721 64.8127 86.7642 64.8237 86.7579 64.8331C87.212 64.1795 87.6724 63.5274 88.0731 62.8376C88.5004 62.1007 88.9153 61.3591 89.3081 60.6049C89.7103 59.7737 90.0874 58.9347 90.4095 58.0674C90.4299 58.0092 90.4503 57.9495 90.4708 57.8914C90.6342 57.42 90.9154 57.0256 91.3617 56.7868C91.778 56.5606 92.2761 56.5103 92.7318 56.6391C93.6509 56.9015 94.3077 57.959 93.984 58.9001C93.5268 60.2262 92.958 61.4895 92.3154 62.7386C91.7278 63.8809 91.0789 65.0059 90.3467 66.0634C89.9193 66.6777 89.4887 67.2826 89.0362 67.8797C88.6324 68.4139 88.1988 68.923 87.7682 69.4384C86.7784 70.6278 85.6157 71.6805 84.3461 72.562C83.6454 73.0491 82.9069 73.4859 82.1841 73.94C82.2532 73.896 82.3208 73.8535 82.3899 73.8095C81.554 74.3343 80.6773 74.8026 79.7848 75.2221C79.1186 75.5348 78.454 75.8506 77.7736 76.1287C76.358 76.7069 74.8841 77.1531 73.3836 77.4391C72.301 77.6433 71.2043 77.7345 70.106 77.7345C69.8703 77.7361 69.6394 77.7313 69.4084 77.7235Z" />
<path d="M92.7302 56.6391C93.6493 56.9015 94.3061 57.9589 93.9824 58.9001L93.9809 58.9032C93.7499 59.0069 93.5048 59.0556 93.2612 59.0556C92.9313 59.0556 92.6029 58.9676 92.3028 58.7995C92.0027 58.633 91.7309 58.4004 91.4496 58.2025C91.1966 58.0218 90.9452 57.8395 90.6938 57.6572C90.6608 57.6321 90.6279 57.6085 90.5964 57.585C90.6499 57.4781 90.7127 57.3744 90.7834 57.2801C90.7865 57.277 90.7913 57.2707 90.7913 57.2707C90.8164 57.2346 90.8463 57.2016 90.8745 57.1686C90.8903 57.1497 90.9059 57.1324 90.9232 57.1152C90.9609 57.0759 91.0002 57.0382 91.0395 57.002C91.0599 56.9863 91.0788 56.969 91.0992 56.9533C91.1322 56.9266 91.1683 56.8999 91.2029 56.8779C91.2265 56.8606 91.25 56.8449 91.2752 56.8308C91.3003 56.8135 91.3286 56.7978 91.3569 56.7836C91.415 56.7522 91.4763 56.7239 91.5376 56.6988C91.9163 56.5495 92.3389 56.5275 92.7302 56.6391Z" />
<path d="M22.2006 175.861C21.1353 175.759 20.1187 175.347 19.2059 174.807C17.3157 173.687 16.2346 171.301 16.508 169.143C16.6322 168.154 16.9574 167.212 17.5341 166.396C17.8373 165.967 18.1783 165.57 18.5884 165.238C18.9922 164.911 19.418 164.668 19.8956 164.465C20.345 164.272 20.8808 164.165 21.3647 164.105C21.8942 164.038 22.43 164.012 22.9627 164.069C24.1756 164.199 25.3226 164.599 26.4225 165.119C27.0871 165.431 27.7487 165.788 28.3709 166.192C28.4196 164.405 28.4447 162.619 28.5374 160.834C28.6835 158.058 28.8752 155.281 29.1172 152.511C29.1172 152.514 29.1172 152.519 29.1156 152.522C29.4142 149.062 29.7252 145.606 30.0599 142.149C30.2233 140.45 30.3867 138.755 30.5564 137.058C30.6429 136.194 30.7371 135.331 30.833 134.469C30.9068 133.809 30.976 133.15 31.0985 132.5C31.2179 131.867 31.4411 131.292 31.9674 130.894C32.7609 130.292 33.9456 130.511 34.5191 131.304C34.9119 131.845 34.9527 132.523 34.7076 133.094C34.7029 133.113 34.6982 133.133 34.6935 133.152C34.5222 134.088 34.4436 135.045 34.3384 135.991C34.2708 136.593 34.2095 137.196 34.1498 137.798C34.0116 139.2 33.8764 140.603 33.7382 142.004C33.4522 144.957 33.1772 147.912 32.918 150.869C32.9211 150.833 32.9243 150.795 32.9274 150.759C32.8662 151.465 32.8049 152.173 32.7436 152.88C32.7452 152.868 32.7451 152.855 32.7467 152.844C32.7451 152.866 32.7436 152.888 32.742 152.91C32.7373 152.965 32.7326 153.02 32.7279 153.077C32.731 153.041 32.7342 153.006 32.7373 152.971C32.4639 156.301 32.2172 159.635 32.101 162.974C32.0428 164.632 32.0067 166.291 31.9643 167.95C31.9485 168.56 31.8935 169.146 31.7521 169.743C31.7003 169.958 31.5824 170.183 31.441 170.382C31.4379 170.777 31.3091 171.174 31.053 171.506C30.4857 172.238 29.862 172.926 29.2178 173.589C28.5343 174.292 27.7235 174.865 26.8153 175.241C25.9998 175.578 25.1215 175.767 24.2432 175.849C23.8724 175.883 23.5047 175.902 23.1371 175.902C22.8275 175.905 22.5149 175.891 22.2006 175.861ZM23.2015 172.265C23.643 172.238 24.0767 172.192 24.515 172.126C24.68 172.092 24.845 172.056 25.01 172.015C25.1781 171.96 25.3431 171.899 25.508 171.831C25.629 171.771 25.7484 171.708 25.8663 171.642C26.0061 171.547 26.1428 171.448 26.2764 171.344C26.5655 171.085 26.8357 170.806 27.1013 170.522C27.2333 170.378 27.3621 170.231 27.491 170.085C27.2317 169.879 26.9693 169.675 26.7006 169.48C26.2072 169.152 25.6966 168.858 25.1718 168.577C24.7523 168.37 24.3281 168.179 23.8913 168.011C23.6399 167.93 23.3885 167.857 23.1324 167.793C22.9297 167.754 22.7301 167.722 22.5259 167.697C22.419 167.692 22.3106 167.691 22.2022 167.694C22.0796 167.702 21.9555 167.713 21.833 167.73C21.635 167.769 21.4417 167.815 21.2469 167.865C21.2139 167.876 21.1809 167.889 21.1479 167.903C21.1086 167.925 21.0678 167.947 21.0285 167.97C20.9845 168 20.9421 168.032 20.8996 168.065C20.8572 168.104 20.8164 168.145 20.7755 168.184C20.6749 168.304 20.5791 168.425 20.4848 168.552C20.4471 168.611 20.411 168.671 20.378 168.732C20.3387 168.814 20.3042 168.897 20.2712 168.982C20.2382 169.086 20.2083 169.19 20.1816 169.295C20.1596 169.407 20.1423 169.517 20.1297 169.628C20.1234 169.729 20.1219 169.829 20.1234 169.931C20.1297 170.007 20.1376 170.084 20.147 170.159C20.1769 170.313 20.2146 170.464 20.2617 170.613C20.2649 170.62 20.268 170.626 20.2712 170.634C20.2586 170.591 20.2445 170.549 20.2303 170.506C20.2649 170.593 20.2994 170.678 20.3324 170.764C20.3748 170.849 20.4204 170.931 20.4676 171.012C20.5446 171.13 20.6262 171.243 20.7142 171.353C20.7598 171.405 20.8069 171.455 20.8556 171.504C20.8965 171.537 20.9389 171.569 20.9798 171.602C21.1432 171.707 21.3081 171.804 21.4794 171.897C21.58 171.944 21.6805 171.99 21.7827 172.03C21.9602 172.087 22.1378 172.137 22.32 172.183C22.5007 172.214 22.6814 172.241 22.8637 172.261C22.9768 172.261 23.0884 172.265 23.2015 172.265Z" />
<path d="M59.9794 174.12C59.0948 173.872 58.2432 173.503 57.4199 173.101C56.496 172.65 55.6224 172.104 54.8195 171.463C54.6026 171.291 54.4361 171.075 54.3214 170.838C54.0873 170.692 53.8752 170.505 53.7369 170.294C53.6096 170.104 53.473 169.92 53.396 169.704C53.3221 169.498 53.2593 169.295 53.2059 169.083C53.1493 168.855 53.1037 168.623 53.0518 168.393C52.8554 167.485 52.7015 166.572 52.5726 165.653C52.0447 161.88 51.6582 158.087 51.2308 154.302C50.805 150.542 50.3776 146.786 49.9534 143.026C49.7428 141.17 49.548 139.311 49.3563 137.452C49.2746 136.657 49.1913 135.855 49.1458 135.056C49.1175 134.565 49.0908 134.076 49.0625 133.586C49.0342 133.088 49.0153 132.568 49.0892 132.074C49.1269 131.832 49.2055 131.56 49.3438 131.359C49.6266 130.946 49.9927 130.638 50.4892 130.52C50.9496 130.412 51.4461 130.487 51.8515 130.729C52.5082 131.124 52.8806 131.98 52.7046 132.726C52.6983 132.916 52.6999 133.108 52.703 133.3C52.934 137.294 53.4337 141.271 53.8862 145.244C54.3214 149.072 54.7567 152.901 55.184 156.732C55.3726 158.419 55.5658 160.108 55.7669 161.796C55.9508 163.328 56.1283 164.864 56.3781 166.387C56.4033 166.523 56.43 166.662 56.4567 166.798C57.9494 165.67 59.3101 164.358 60.996 163.508C62.8988 162.55 65.1849 162.625 66.995 163.771C67.9802 164.394 68.6165 165.398 69.0674 166.446C69.2953 166.982 69.3927 167.579 69.4461 168.154C69.5074 168.811 69.4618 169.482 69.3424 170.129C68.9276 172.381 67.0547 174.078 64.8597 174.549C64.3899 174.65 63.9138 174.694 63.4361 174.694C62.2671 174.692 61.0903 174.433 59.9794 174.12ZM63.5697 171.023C63.7551 171.011 63.9389 170.994 64.1243 170.968C64.206 170.951 64.2861 170.932 64.3678 170.909C64.5108 170.858 64.6507 170.8 64.7858 170.731C64.7136 170.764 64.6397 170.797 64.5674 170.83C64.7324 170.745 64.8911 170.654 65.0466 170.554C65.0325 170.565 65.0183 170.577 65.0058 170.588C65.0215 170.576 65.0372 170.563 65.0545 170.549C65.0812 170.532 65.1079 170.514 65.1346 170.495C65.1111 170.51 65.089 170.524 65.0655 170.538C65.0906 170.518 65.1142 170.497 65.1394 170.475C65.1127 170.497 65.0859 170.519 65.0592 170.543C65.0168 170.569 64.9728 170.596 64.9288 170.623C65.0105 170.563 65.0922 170.503 65.1739 170.444C65.2289 170.395 65.2823 170.345 65.3342 170.293C65.3829 170.23 65.4332 170.167 65.4819 170.106C65.5133 170.057 65.5432 170.007 65.5714 169.957C65.6107 169.869 65.6484 169.781 65.6861 169.693C65.6704 169.74 65.6531 169.787 65.6358 169.834C65.6186 169.867 65.6013 169.902 65.584 169.935C65.5997 169.905 65.617 169.875 65.6327 169.843C65.6249 169.867 65.6154 169.891 65.6076 169.914C65.6186 169.887 65.628 169.859 65.639 169.832C65.6531 169.806 65.6657 169.779 65.6783 169.752C65.6657 169.776 65.6547 169.798 65.6421 169.821C65.6877 169.696 65.7254 169.57 65.7584 169.441C65.7757 169.347 65.7898 169.253 65.8008 169.157C65.8118 168.931 65.8134 168.707 65.8087 168.483C65.8008 168.395 65.793 168.305 65.7851 168.217C65.7647 168.112 65.7396 168.008 65.7113 167.905C65.6767 167.804 65.639 167.705 65.5982 167.608C65.5463 167.501 65.4913 167.397 65.43 167.295C65.3735 167.218 65.3184 167.142 65.2619 167.067C65.2195 167.022 65.177 166.976 65.133 166.932C65.0875 166.896 65.0435 166.86 64.9979 166.825C64.9555 166.798 64.9115 166.77 64.8675 166.743C64.8942 166.758 64.9194 166.77 64.9461 166.784C64.9429 166.781 64.9398 166.78 64.9351 166.776C64.844 166.731 64.7513 166.688 64.6554 166.651C64.5124 166.605 64.3695 166.564 64.2233 166.53C64.1306 166.512 64.0379 166.498 63.9452 166.489C63.8541 166.483 63.7645 166.481 63.675 166.483C63.5791 166.49 63.4848 166.5 63.389 166.514C63.312 166.53 63.235 166.549 63.158 166.567C62.9915 166.626 62.8296 166.688 62.6678 166.756C62.4667 166.858 62.2703 166.966 62.0754 167.081C61.2238 167.641 60.4367 168.288 59.6463 168.929C59.3431 169.176 59.0383 169.421 58.7256 169.658C58.7932 169.696 58.8623 169.732 58.9298 169.77C59.3918 169.993 59.8568 170.195 60.3314 170.386C60.7383 170.522 61.1453 170.646 61.5601 170.764C62.0016 170.858 62.4415 170.943 62.8925 170.998C63.1187 171.016 63.3418 171.023 63.5697 171.023Z" />
<path d="M16.8491 124.931C16.2505 124.106 16.472 122.988 17.2592 122.38C17.4996 122.194 17.7352 122.004 17.9709 121.814C18.6104 121.267 19.2153 120.695 19.7983 120.089C19.9193 119.952 20.0371 119.815 20.1518 119.676C19.9821 119.586 19.8109 119.498 19.6396 119.41C19.7103 119.448 19.781 119.482 19.8517 119.52C16.395 117.767 12.8613 116.165 9.45488 114.315C8.60327 113.851 7.75951 113.367 6.9409 112.842C6.3234 112.443 5.71376 112.041 5.11826 111.607C4.03726 110.82 3.09453 109.879 2.24921 108.847C1.48716 107.916 0.927794 106.851 0.479992 105.74C0.01805 104.592 -0.137515 103.286 0.132737 102.075C0.472123 100.544 1.34731 99.1333 2.28848 97.8936C2.87141 97.1253 3.45589 96.3569 4.08124 95.6216C4.44891 95.1895 4.8056 94.7401 5.19369 94.3285C5.58964 93.909 5.98403 93.4894 6.37998 93.0699C6.96762 92.4446 7.59296 91.8397 8.22774 91.263C8.93637 90.6172 9.63871 89.9667 10.3615 89.3367C11.9893 87.9178 13.6281 86.5195 15.3454 85.209C16.9292 83.9992 18.5727 82.8726 20.2194 81.7523C20.7724 81.3768 21.3224 80.995 21.899 80.654C22.3782 80.3712 22.8575 80.0664 23.3791 79.8668C24.3093 79.5118 25.3856 79.9988 25.736 80.9274C26.0895 81.8592 25.6071 82.926 24.6785 83.2827C24.3344 83.4508 24.0076 83.6488 23.6792 83.8452C22.053 84.8948 20.4692 86.0057 18.8933 87.1275C17.377 88.2054 15.944 89.3791 14.5111 90.5622C13.2871 91.626 12.0773 92.6991 10.8768 93.7911C9.8194 94.7527 8.83264 95.7866 7.85219 96.8267C6.88274 97.9659 5.94629 99.1192 5.04126 100.309C4.7113 100.8 4.39076 101.289 4.10637 101.811C4.00267 102.023 3.90685 102.235 3.81886 102.452C3.77015 102.599 3.72773 102.747 3.69002 102.898C3.67902 102.977 3.66803 103.055 3.65703 103.134C3.65389 103.206 3.65075 103.278 3.65075 103.351C3.6586 103.434 3.66644 103.519 3.67429 103.603C3.71357 103.809 3.7607 104.01 3.8157 104.213C3.90054 104.447 3.99169 104.677 4.08911 104.906C4.23523 105.211 4.39077 105.505 4.56046 105.797C4.79614 106.157 5.0491 106.498 5.31778 106.834C5.6226 107.183 5.94001 107.513 6.27468 107.833C6.77433 108.273 7.29597 108.68 7.83805 109.067C9.4957 110.203 11.2649 111.153 13.0436 112.083C15.6785 113.411 18.3433 114.678 20.9799 116C21.7293 116.376 22.4867 116.744 23.1749 117.223C23.4923 117.444 23.7499 117.828 23.9196 118.169C24.083 118.496 24.1899 118.876 24.1804 119.242C24.171 119.632 24.1255 120.028 23.9715 120.391C23.7908 120.813 23.5771 121.211 23.3006 121.58C22.2148 123.027 20.8227 124.238 19.3992 125.341C19.0944 125.579 18.7267 125.689 18.3606 125.689C17.7808 125.687 17.1979 125.412 16.8491 124.931Z" />
<path d="M91.3585 56.787C91.4166 56.7556 91.4779 56.7273 91.5392 56.7021C91.3444 56.9567 91.082 57.1562 90.7819 57.2819C90.9343 57.0824 91.1228 56.9127 91.3585 56.787Z" />
<path d="M91.7214 59.6309C90.5178 59.524 89.8202 58.0502 90.3497 57.0163C90.5681 56.5905 90.8494 56.2024 91.1259 55.8128C91.6695 55.0209 92.1927 54.2117 92.6782 53.3836C92.9532 52.9154 93.2046 52.433 93.4859 51.9664C93.8252 51.4055 94.2212 50.8728 94.6046 50.3402C95.1859 49.531 96.4241 49.4508 97.1736 50.0495C97.5554 50.3527 97.802 50.8037 97.8523 51.2876C97.9042 51.7794 97.7486 52.2225 97.4642 52.6185C97.3417 52.7897 97.2191 52.9626 97.0966 53.137C96.5011 54.0106 96.0187 54.9486 95.4656 55.8489C94.9691 56.6518 94.4412 57.4358 93.9023 58.2105C93.8221 58.3267 93.7435 58.4446 93.6681 58.5656C93.5377 58.8594 93.3303 59.1171 93.0679 59.3088C92.7333 59.5507 92.3593 59.645 91.9633 59.645C91.8832 59.6419 91.8031 59.6387 91.7214 59.6309Z" />
<path d="M90.0779 59.5082C89.6427 59.0745 89.4918 58.4366 89.4007 57.8505C89.3347 57.42 89.2876 56.9879 89.2546 56.5558C89.1933 55.7247 89.1587 54.8919 89.1305 54.0592C89.0755 52.4785 89.0598 50.8947 89.0236 49.314C89.0001 48.3179 89.9318 47.5071 90.8934 47.5291C91.3742 47.5401 91.8393 47.7444 92.1724 48.0932C92.5165 48.4546 92.6673 48.9071 92.6783 49.3989C92.7192 51.1917 92.7474 52.9844 92.8071 54.7772C92.8496 55.6493 92.8967 56.5228 93.024 57.387C93.0255 57.3917 93.0256 57.3965 93.0271 57.4012C93.387 58.0988 93.244 59.0133 92.6626 59.5679C92.3107 59.9041 91.866 60.066 91.4198 60.066C90.9342 60.066 90.4472 59.8743 90.0779 59.5082Z" />
<path d="M91.3757 60.6599C90.7111 59.9639 90.6844 58.7304 91.4354 58.0752C92.2132 57.3949 93.1261 56.8622 93.9792 56.2856C94.9707 55.6178 95.9574 54.9453 96.941 54.2666C98.7857 52.997 100.629 51.7275 102.476 50.4642C103.298 49.9017 104.433 50.051 105.03 50.8743C105.602 51.6646 105.443 52.865 104.62 53.426C102.833 54.6484 101.051 55.8755 99.268 57.1026C98.2938 57.772 97.3181 58.4413 96.3361 59.1028C95.4829 59.6779 94.581 60.2121 93.7844 60.8626C93.8174 60.8359 93.8504 60.8092 93.8834 60.7809C93.5251 61.0637 93.0946 61.213 92.6657 61.213C92.199 61.2146 91.7355 61.0354 91.3757 60.6599Z" />
<path d="M100.89 63.9613C99.4095 63.7523 97.9404 63.4695 96.4728 63.1804C95.6778 63.0233 94.8796 62.8614 94.0924 62.6603C93.4152 62.489 92.7632 62.2486 92.1268 61.9642C91.5235 61.6924 91.0584 61.2698 90.8855 60.6098C90.6341 59.6467 91.2878 58.6332 92.2415 58.4085C92.7333 58.2923 93.2204 58.3897 93.6164 58.6379C93.6132 58.6332 93.61 58.6285 93.6053 58.6238C93.5393 58.5908 93.4749 58.5562 93.4089 58.5232C93.698 58.6694 93.9935 58.7951 94.2951 58.9082C94.9205 59.1125 95.5568 59.257 96.1963 59.4C97.9372 59.7504 99.6782 60.1008 101.436 60.3474C102.423 60.4841 103.118 61.4536 102.968 62.4293C102.832 63.3375 102.03 63.9786 101.141 63.9786C101.059 63.9786 100.974 63.9723 100.89 63.9613Z" />
<path d="M89.6898 60.8453C88.5003 60.242 87.4947 59.2725 86.5064 58.3958C85.482 57.4876 84.4607 56.5779 83.4598 55.6461C82.7307 54.9658 82.8298 53.7182 83.5195 53.0615C83.8683 52.7284 84.3413 52.5445 84.8236 52.5555C85.3264 52.5665 85.7428 52.7849 86.1026 53.1212C86.3116 53.316 86.5205 53.5077 86.7311 53.7009C86.6714 53.6459 86.6101 53.5894 86.5488 53.5328C87.2889 54.2069 88.0352 54.8715 88.7831 55.5362C89.5216 56.1898 90.2617 56.8308 91.0536 57.4169C91.1463 57.4766 91.2405 57.5363 91.3379 57.5898C91.2955 57.5678 91.2547 57.5458 91.2123 57.5253C91.6271 57.75 91.9554 58.0658 92.1283 58.5199C92.2948 58.9614 92.2838 59.4627 92.0969 59.8947C91.814 60.5484 91.1038 61.0103 90.3905 61.0103C90.1501 61.0087 89.9113 60.9585 89.6898 60.8453Z" />
</svg>
