<svg width="33" height="32" viewBox="0 0 33 32" fill="none" xmlns="http://www.w3.org/2000/svg">
<path fill-rule="evenodd" clip-rule="evenodd" d="M4.5 7.66667C4.5 5.64162 6.14162 4 8.16667 4H24.8333C26.8584 4 28.5 5.64162 28.5 7.66667V24.3333C28.5 26.3584 26.8584 28 24.8333 28H8.16667C6.14162 28 4.5 26.3584 4.5 24.3333V7.66667ZM8.16667 6C7.24619 6 6.5 6.74619 6.5 7.66667V19.2525L8.57394 17.1785C10.0059 15.7466 12.3275 15.7466 13.7594 17.1785L22.5809 26H24.8333C25.7538 26 26.5 25.2538 26.5 24.3333V7.66667C26.5 6.74619 25.7538 6 24.8333 6H8.16667ZM19.7525 26L12.3452 18.5927C11.6943 17.9419 10.639 17.9419 9.98816 18.5927L6.5 22.0809V24.3333C6.5 25.2538 7.24619 26 8.16667 26H19.7525Z"/>
<path d="M18.4006 11.383C18.4651 11.3508 18.5174 11.2985 18.5497 11.234L19.5352 9.26295C19.658 9.01727 20.0086 9.01727 20.1315 9.26295L21.117 11.234C21.1492 11.2985 21.2015 11.3508 21.266 11.383L23.237 12.3685C23.4827 12.4914 23.4827 12.842 23.237 12.9648L21.266 13.9503C21.2015 13.9826 21.1492 14.0349 21.117 14.0994L20.1315 16.0704C20.0086 16.3161 19.658 16.3161 19.5352 16.0704L18.5497 14.0994C18.5174 14.0349 18.4651 13.9826 18.4006 13.9503L16.4296 12.9648C16.1839 12.842 16.1839 12.4914 16.4296 12.3685L18.4006 11.383Z"/>
</svg>
