<svg width="16" height="16" viewBox="0 0 16 16" fill="none" xmlns="http://www.w3.org/2000/svg">
<path d="M6.83366 14.1666H4.50033C3.76395 14.1666 3.16699 13.5697 3.16699 12.8333V3.16665C3.16699 2.43027 3.76395 1.83331 4.50033 1.83331H11.5003C12.2367 1.83331 12.8337 2.43027 12.8337 3.16665V7.16665M13.667 14.3333L12.7823 13.4201M12.7823 13.4201C13.2264 12.9688 13.5003 12.3497 13.5003 11.6666C13.5003 10.2859 12.381 9.16665 11.0003 9.16665C9.61961 9.16665 8.50033 10.2859 8.50033 11.6666C8.50033 13.0474 9.61961 14.1666 11.0003 14.1666C11.6979 14.1666 12.3288 13.8809 12.7823 13.4201ZM5.83366 4.49998H10.167M5.83366 7.16665H8.16699" stroke="#1A1A1A" stroke-linecap="round" stroke-linejoin="round"/>
</svg>
