<svg width="154" height="175" viewBox="0 0 154 175" fill="none" xmlns="http://www.w3.org/2000/svg">
<g id="Group">
<path id="Vector" d="M73.8303 61.476C73.3164 61.4594 72.8039 61.4413 72.2914 61.4248C71.8151 61.4082 71.3342 61.3253 70.8609 61.274C70.3575 61.2198 69.8526 61.1655 69.3461 61.1097C68.8819 61.06 68.4146 60.9469 67.9549 60.8655C67.4936 60.7841 67.0354 60.7043 66.5757 60.6229C65.2266 60.3847 63.8897 59.9973 62.5873 59.5768C60.1365 58.784 57.7685 57.7047 55.5573 56.3828C54.4509 55.7211 53.4003 54.9584 52.3738 54.1761C51.284 53.3486 50.2606 52.4397 49.2763 51.4901C47.3319 49.615 45.6859 47.446 44.2736 45.1489C42.8733 42.8698 41.8589 40.3737 41.2559 37.7676C40.6651 35.2157 40.6485 32.584 40.9922 29.9989C41.3373 27.3837 42.204 24.8665 43.3345 22.4925C45.603 17.7264 48.9824 13.4592 52.9979 10.0482C54.6529 8.64039 56.4496 7.3441 58.3609 6.30255C59.2532 5.8172 60.1319 5.29718 61.0589 4.87966C61.9663 4.47118 62.8632 4.03557 63.7977 3.69491C64.3856 3.47937 64.9719 3.26533 65.5598 3.0513C65.9305 2.91564 66.3149 2.81314 66.6932 2.7016C67.2675 2.53429 67.8403 2.36698 68.4146 2.20117C68.811 2.08511 69.221 2.00824 69.6219 1.91629C70.1013 1.80626 70.5776 1.69472 71.0554 1.58468C71.5845 1.4641 72.1286 1.38723 72.6637 1.28775C73.6962 1.09782 74.7302 0.951616 75.7703 0.806914C76.1139 0.75868 76.45 0.72401 76.7952 0.695372C77.3846 0.648645 77.9769 0.571777 78.5678 0.561226C79.0682 0.553689 79.5717 0.546149 80.0721 0.537105C80.5529 0.529568 81.0308 0.562733 81.5101 0.582328C82.3346 0.618503 83.153 0.698387 83.967 0.840074C84.4855 0.930512 84.995 1.06768 85.4999 1.21992C85.7019 1.17771 85.9114 1.1747 86.1224 1.21992C89.7716 2.00523 93.4299 2.87494 96.9358 4.1667C98.6708 4.80731 100.347 5.60769 101.969 6.49549C102.793 6.94618 103.6 7.43152 104.371 7.96963C105.196 8.54392 105.98 9.15137 106.754 9.79348C108.295 11.0717 109.629 12.5835 110.881 14.1375C112.018 15.5469 113.02 17.1069 113.855 18.7122C114.324 19.6151 114.772 20.5255 115.152 21.4706C115.535 22.4247 115.842 23.3924 116.106 24.3857C116.347 25.2946 116.501 26.2231 116.591 27.1592C116.648 27.7545 116.647 28.3575 116.668 28.9544C116.685 29.4578 116.659 29.9823 116.615 30.4858C116.575 30.9334 116.561 31.3887 116.495 31.8333C116.416 32.3428 116.359 32.8598 116.246 33.3617C116.146 33.8049 116.074 34.2676 115.941 34.7017C115.791 35.1931 115.663 35.698 115.479 36.1774C115.313 36.607 115.168 37.0531 114.978 37.4706C114.752 37.9605 114.543 38.4609 114.294 38.9373C114.063 39.3819 113.833 39.8251 113.601 40.2682C113.138 41.156 112.577 41.9926 112.033 42.8306C111.543 43.5843 110.999 44.3198 110.413 45.0027C110.078 45.393 109.757 45.8015 109.401 46.1738C109 46.5899 108.601 47.0059 108.2 47.4219C107.599 48.0474 106.943 48.6322 106.292 49.2065C105.467 49.93 104.632 50.6279 103.782 51.3183C103.066 51.9001 102.311 52.4307 101.568 52.9778C101.217 53.2356 100.831 53.4586 100.464 53.6953C100.091 53.9395 99.7198 54.1927 99.3325 54.4173C98.4597 54.9237 97.596 55.4377 96.6947 55.896C96.2033 56.1462 95.7104 56.3964 95.2175 56.6481C94.7729 56.8757 94.3026 57.0581 93.8489 57.2616C93.4148 57.4545 92.9807 57.649 92.5466 57.8419C92.0883 58.0469 91.6015 58.2021 91.1327 58.38C90.7152 58.5383 90.2977 58.698 89.8786 58.8578C89.3933 59.0432 88.8778 59.1728 88.3804 59.3296C87.9372 59.4683 87.4956 59.6085 87.0509 59.7471C86.5565 59.9024 86.0471 60.0094 85.5451 60.136C85.0206 60.2671 84.496 60.3983 83.973 60.5294C83.5645 60.6304 83.141 60.6862 82.728 60.763C82.1733 60.864 81.6171 60.968 81.0639 61.0705C80.6253 61.1519 80.1791 61.1836 79.736 61.2303C79.1753 61.2921 78.6145 61.3509 78.0523 61.4127C77.6212 61.4579 77.1751 61.4474 76.7425 61.4609C76.1923 61.479 75.6436 61.4971 75.092 61.5167C75.0332 61.5182 74.9759 61.5197 74.9171 61.5197C74.5554 61.5182 74.1906 61.4896 73.8303 61.476ZM75.1206 57.9549C75.5713 57.97 76.0355 57.9263 76.4862 57.9097C76.8751 57.8961 77.264 57.8841 77.6529 57.8705C78.5603 57.7725 79.4692 57.6746 80.3766 57.5766C81.284 57.4093 82.1914 57.2405 83.1003 57.0732C83.5871 56.9827 84.074 56.829 84.5533 56.7084C85.0326 56.5893 85.512 56.4672 85.9898 56.3481C86.6847 56.1281 87.3795 55.911 88.0744 55.6925C88.6291 55.5191 89.1657 55.3126 89.7098 55.1046C90.3007 54.88 90.9021 54.6765 91.4794 54.4188C92.1667 54.1128 92.8556 53.8053 93.5429 53.4993C94.2664 53.1316 94.9884 52.7638 95.7104 52.396C96.0119 52.2422 96.2998 52.0553 96.5937 51.885C96.963 51.671 97.3308 51.4569 97.7016 51.2429C98.5607 50.6867 99.4154 50.135 100.241 49.5276C100.659 49.2216 101.084 48.9247 101.485 48.5976C101.948 48.2207 102.412 47.8454 102.875 47.4686C103.542 46.8823 104.213 46.3019 104.855 45.6885C105.547 45.0283 106.21 44.353 106.872 43.6642C107.22 43.2557 107.568 42.8487 107.918 42.4402C108.085 42.2443 108.229 42.0212 108.381 41.8147C108.548 41.5901 108.715 41.3655 108.883 41.1394C109.284 40.5244 109.686 39.911 110.054 39.2749C110.437 38.6147 110.794 37.9485 111.147 37.2732C111.337 36.8572 111.528 36.4396 111.72 36.0236C111.885 35.6619 112.015 35.2775 112.154 34.9022C112.277 34.4982 112.401 34.0928 112.524 33.6888C112.651 33.2773 112.719 32.8372 112.812 32.4151C112.799 32.4754 112.785 32.5357 112.773 32.596C112.841 32.1514 112.91 31.7097 112.978 31.2651C113.043 30.831 113.056 30.3818 113.096 29.9432C113.088 30.02 113.084 30.0954 113.076 30.1708C113.087 29.7366 113.097 29.3025 113.108 28.8684C113.117 28.5263 113.093 28.1796 113.076 27.8359C113.038 27.3657 112.986 26.8999 112.915 26.4357C112.788 25.7634 112.615 25.1107 112.44 24.4505C112.321 24.0963 112.203 23.7421 112.084 23.3894C111.958 23.0111 111.786 22.6403 111.637 22.2695C111.31 21.5686 110.969 20.8812 110.613 20.1939C110.268 19.5337 109.87 18.9021 109.475 18.2691C108.824 17.324 108.146 16.4121 107.428 15.5182C106.718 14.7118 105.986 13.9416 105.217 13.1909C104.735 12.7599 104.248 12.3393 103.75 11.9248C103.268 11.5254 102.753 11.1696 102.237 10.8124C101.4 10.2758 100.552 9.77689 99.6822 9.29757C98.1884 8.53789 96.6706 7.86261 95.0999 7.27929C92.4938 6.40354 89.8364 5.70415 87.1595 5.08917C86.6379 5.31376 86.0229 5.28361 85.5165 4.98366C85.4215 4.94296 85.3266 4.90377 85.2316 4.8676C84.701 4.69727 84.172 4.53147 83.6308 4.40184C83.1093 4.29784 82.5878 4.22699 82.0587 4.17575C80.9117 4.08832 79.7691 4.09887 78.6206 4.11696C78.3055 4.14258 77.989 4.16821 77.6725 4.19233C77.3198 4.21946 76.961 4.23001 76.6128 4.27824C75.8245 4.38828 75.0362 4.49831 74.2479 4.60834C73.6133 4.72591 72.9772 4.84348 72.3426 4.96105C71.7638 5.06807 71.1926 5.20524 70.6198 5.33637C70.0515 5.46751 69.4848 5.5896 68.9271 5.75239C68.2835 5.9393 67.6398 6.12771 66.9962 6.31461C66.1642 6.61758 65.3352 6.92205 64.5031 7.22653C64.1097 7.36972 63.7269 7.57623 63.344 7.74806C62.9672 7.91688 62.5904 8.08721 62.212 8.25753C61.1464 8.83784 60.0701 9.40007 59.0346 10.0346C57.7685 10.8365 56.5596 11.7153 55.402 12.6694C54.2625 13.6416 53.1878 14.6771 52.1688 15.773C51.0851 16.9743 50.0827 18.2359 49.1527 19.5578C48.3569 20.7245 47.6273 21.9273 46.9686 23.1768C46.4275 24.2455 45.9437 25.3368 45.5246 26.4583C45.2292 27.3039 44.9775 28.1555 44.7785 29.0282C44.6022 29.9025 44.4725 30.7827 44.3866 31.672C44.3293 32.4393 44.3112 33.2035 44.3369 33.9737C44.3791 34.6882 44.4514 35.3966 44.5615 36.1035C44.7092 36.9084 44.9021 37.6997 45.1342 38.4851C45.4161 39.3623 45.7462 40.2169 46.1215 41.058C46.5813 42.0272 47.1043 42.9542 47.6695 43.8646C48.3569 44.9303 49.106 45.9492 49.9109 46.929C50.7068 47.865 51.5523 48.7483 52.4492 49.5879C53.5947 50.6234 54.8051 51.573 56.0682 52.4623C57.0616 53.1376 58.0865 53.7465 59.1507 54.2997C60.4002 54.9253 61.6814 55.4739 62.9943 55.9502C64.277 56.3919 65.5793 56.7536 66.9028 57.0505C67.881 57.257 68.8728 57.4078 69.8571 57.5796C70.252 57.6489 70.6635 57.6685 71.0614 57.7123C71.5181 57.762 71.9733 57.8117 72.4301 57.86C73.3254 57.8946 74.2238 57.9248 75.1206 57.9549Z" />
<path id="Vector_2" d="M73.0857 27.3521C72.1346 27.3295 71.2981 26.499 71.3463 25.5298C71.4578 23.3065 71.6779 21.0923 71.9115 18.8811C72.0291 17.7792 72.1693 16.6819 72.3245 15.5846C72.4059 15.0209 72.5009 14.4617 72.6004 13.9024C72.6441 13.6552 72.6998 13.4096 72.7526 13.1654C72.8551 12.6876 73.0104 12.1449 73.4023 11.8163C73.9615 11.3476 74.6488 11.1878 75.3407 11.4697C75.5577 11.5586 75.7612 11.7048 75.9225 11.8766C76.435 12.4162 76.5405 13.2136 76.245 13.8587C76.2405 13.8738 76.236 13.8904 76.2315 13.9055C75.927 15.3736 75.7265 16.8643 75.5517 18.352C75.3783 19.8488 75.2306 21.3485 75.098 22.8498C75.0211 23.7693 74.9548 24.6902 74.9081 25.6127C74.8598 26.5683 74.0971 27.3521 73.1249 27.3521C73.1129 27.3536 73.0993 27.3536 73.0857 27.3521Z" />
<path id="Vector_3" d="M84.2714 24.3269C83.8012 24.3164 83.349 24.1159 83.0249 23.7753C82.6873 23.4225 82.5456 22.9839 82.532 22.5046C82.4732 20.4863 82.4838 18.468 82.5064 16.4498C82.5169 15.4353 82.5305 14.4194 82.5637 13.405C82.5833 12.8639 82.6028 12.3227 82.6255 11.7801C82.6435 11.3174 82.642 10.8471 82.6918 10.3859C82.7943 9.41967 83.7921 8.75344 84.7206 8.89362C85.1894 8.96447 85.6175 9.22673 85.8948 9.6111C86.1541 9.96833 86.2475 10.3798 86.2234 10.8094C86.2264 10.7732 86.2309 10.7355 86.2339 10.6994C86.1646 11.658 86.1556 12.6272 86.1224 13.5889C86.0877 14.6154 86.0787 15.6448 86.0666 16.6728C86.0425 18.6429 86.038 20.6159 86.0923 22.5875C86.1194 23.5446 85.2271 24.3269 84.3061 24.3269C84.2956 24.3269 84.2835 24.3269 84.2714 24.3269Z" />
<path id="Vector_4" d="M75.4266 42.9707C74.3428 42.8742 73.2726 42.5773 72.2703 42.1628C71.488 41.8417 70.778 41.3352 70.1058 40.8273C69.0944 40.0616 68.1583 39.2386 67.2871 38.3161C66.44 37.4178 65.7693 36.3415 65.1588 35.2729C64.5634 34.2313 64.0796 33.1114 63.7329 31.9643C63.4058 30.8851 63.0968 29.4848 63.9982 28.5895C64.687 27.9051 65.8567 27.9564 66.5169 28.6482C66.9239 29.0748 67.0701 29.6491 66.9736 30.1872C66.9736 30.2038 66.9721 30.2219 66.9721 30.2385C66.9736 30.2611 66.9766 30.2837 66.9796 30.3063C67.0339 30.5535 67.0987 30.7962 67.1696 31.0388C67.3203 31.4925 67.4921 31.9342 67.682 32.3728C67.9865 33.0179 68.3226 33.642 68.6904 34.2554C68.9843 34.7076 69.2934 35.1447 69.6219 35.5728C69.9551 35.9527 70.3017 36.3159 70.659 36.6747C71.3689 37.3092 72.1105 37.8941 72.8883 38.4427C73.0842 38.5708 73.2817 38.6884 73.4852 38.8C73.6796 38.8874 73.8741 38.9703 74.073 39.0456C74.3519 39.1346 74.6292 39.2145 74.9141 39.2838C75.306 39.3607 75.6964 39.4164 76.0928 39.4571C76.4757 39.4782 76.857 39.4873 77.2414 39.4813C77.7659 39.4511 78.2844 39.3968 78.8029 39.3139C79.2431 39.2265 79.6772 39.1225 80.1083 38.9989C80.5499 38.8542 80.981 38.6899 81.4076 38.506C81.8914 38.2754 82.3587 38.0252 82.8199 37.7494C83.447 37.3409 84.0273 36.8887 84.6061 36.4184C85.0869 35.9677 85.5512 35.511 86.0064 35.0362C86.5791 34.367 87.1248 33.6857 87.6478 32.9772C88.002 32.4542 88.3427 31.9251 88.6607 31.378C88.9788 30.8278 89.2727 30.2641 89.5636 29.6988C90.1047 28.6196 90.6127 27.5268 91.0378 26.3948C91.089 26.2486 91.1387 26.1009 91.1885 25.9547C91.4975 25.0352 92.4305 24.4579 93.3937 24.7338C94.295 24.9915 94.9236 26.018 94.6146 26.939C94.0192 28.7176 93.2233 30.4103 92.3446 32.0653C91.4583 33.7369 90.4454 35.3392 89.2094 36.7756C88.8612 37.1796 88.51 37.57 88.1422 37.9559C87.7955 38.3206 87.4278 38.6583 87.0615 39.0004C86.7193 39.32 86.3335 39.6018 85.9702 39.8988C85.5316 40.2575 85.0387 40.5695 84.5548 40.862C83.967 41.2162 83.3656 41.5402 82.734 41.8131C81.6427 42.2879 80.5077 42.6361 79.335 42.8335C78.512 42.9722 77.6936 43.037 76.8721 43.037C76.3913 43.034 75.9104 43.0129 75.4266 42.9707Z" />
<path id="Vector_5" d="M75.9662 130.551C72.0924 130.39 68.2096 130.17 64.3524 129.772C62.3793 129.567 60.4183 129.317 58.4679 128.946C57.6087 128.783 56.736 128.601 55.922 128.28C55.4849 128.106 54.998 127.913 54.6378 127.6C54.2263 127.243 53.8871 126.861 53.6641 126.358C53.4154 125.8 53.3551 125.191 53.3279 124.588C53.3038 124.077 53.3008 123.574 53.3219 123.064C53.4018 121.269 53.5601 119.474 53.6776 117.682C53.7982 115.796 53.9218 113.91 54.0469 112.022C54.2926 108.294 54.5865 104.568 54.8744 100.842C55.1684 97.0257 55.4442 93.2076 55.7125 89.3896C55.9853 85.4887 56.2672 81.5878 56.5973 77.6914C56.9455 73.6066 57.3148 69.5233 57.6916 65.44C57.8363 63.8679 57.9825 62.2958 58.1287 60.7237C58.1996 59.9715 58.2689 59.2164 58.3382 58.4627C58.3744 58.0738 58.4106 57.688 58.4437 57.2991C58.4724 56.972 58.4905 56.6329 58.6156 56.3284C58.9457 55.5129 59.9058 55.0653 60.7529 55.3079C61.6377 55.5596 62.1442 56.4369 62.0146 57.3126C62.0161 57.3081 62.0176 57.3021 62.0191 57.2976C61.9211 57.8839 61.9075 58.4959 61.8518 59.0867C61.7794 59.869 61.7071 60.6498 61.6347 61.4306C61.4975 62.8972 61.3604 64.3653 61.2262 65.8335C60.9383 68.9717 60.655 72.1084 60.3746 75.2466C60.0581 78.9696 59.7476 82.6942 59.4868 86.4217C59.2049 90.4478 58.9246 94.4753 58.6231 98.4983C58.3428 102.229 58.0353 105.955 57.776 109.687C57.5137 113.421 57.2846 117.157 57.0359 120.892C56.9666 121.949 56.8656 123.006 56.8671 124.064C56.8792 124.321 56.8942 124.579 56.9199 124.835C57.0133 124.879 57.1098 124.92 57.2062 124.958C57.7172 125.122 58.2312 125.258 58.7542 125.375C59.7883 125.571 60.8208 125.767 61.8668 125.897C63.1104 126.052 64.3509 126.192 65.5974 126.319C68.7175 126.579 71.8392 126.777 74.9653 126.941C78.0643 127.104 81.1604 127.087 84.2594 126.979C86.8354 126.857 89.4129 126.717 91.9768 126.444C94.5317 126.174 97.0745 125.826 99.6083 125.399C99.5721 125.405 99.5344 125.411 99.4982 125.419C100.674 125.215 101.875 125.048 103.027 124.727C103.071 124.71 103.114 124.694 103.158 124.677C103.191 124.661 103.224 124.643 103.257 124.626C103.279 124.606 103.298 124.587 103.319 124.567C103.331 124.554 103.343 124.539 103.357 124.525C103.351 124.532 103.346 124.54 103.342 124.548L103.348 124.542C103.383 124.489 103.416 124.435 103.447 124.379C103.518 124.225 103.583 124.07 103.643 123.911C103.723 123.649 103.796 123.388 103.86 123.122C104.004 122.407 104.083 121.691 104.163 120.968C104.264 119.227 104.319 117.484 104.296 115.739C104.272 113.819 104.215 111.901 104.141 109.982C104.144 110.059 104.147 110.135 104.15 110.21C103.815 102.565 103.342 94.9169 102.4 87.3201C101.911 83.3664 101.358 79.4203 100.808 75.4742C100.284 71.7074 99.8148 67.9361 99.3927 64.1558C98.9586 60.2549 98.5577 56.3495 98.0618 52.4546C97.9397 51.4914 98.6979 50.5946 99.6475 50.4966C100.629 50.3941 101.483 51.1191 101.605 52.0823C102.056 55.623 102.428 59.1742 102.819 62.7209C103.235 66.5042 103.69 70.283 104.209 74.0528C104.727 77.8376 105.286 81.6165 105.755 85.4073C106.23 89.2434 106.635 93.0871 106.932 96.9412C107.232 100.853 107.47 104.764 107.644 108.683C107.816 112.574 107.998 116.49 107.766 120.381C107.692 121.607 107.589 122.843 107.302 124.04C107.056 125.072 106.705 126.091 106.002 126.908C105.726 127.226 105.378 127.541 105 127.736C104.591 127.944 104.181 128.096 103.743 128.224C103.363 128.334 102.967 128.397 102.578 128.474C102.125 128.563 101.67 128.644 101.217 128.726C100.35 128.881 99.4802 129.027 98.6105 129.164C94.8949 129.748 91.1659 130.14 87.4127 130.372C84.8819 130.527 82.3496 130.622 79.8158 130.622C78.5331 130.628 77.2504 130.604 75.9662 130.551Z" />
<path id="Vector_6" d="M56.0125 173.921C55.1895 173.598 54.475 173.026 53.8766 172.387C53.1652 171.625 52.6256 170.667 52.3407 169.664C51.7754 167.675 52.0829 165.313 53.7319 163.912C54.7117 163.082 56.0517 162.981 57.2846 162.972C58.0443 162.966 58.7965 163.12 59.5351 163.275C60.2736 163.429 61.0077 163.634 61.7161 163.897C62.9823 164.365 64.1459 165.072 65.4045 165.555C65.4135 165.558 65.4226 165.561 65.4331 165.564C65.4859 165.245 65.5191 164.924 65.5507 164.601C65.8371 161.033 66.0903 157.463 66.3692 153.893C66.6691 150.062 67.0038 146.233 67.37 142.406C67.771 138.231 68.1373 134.05 68.6332 129.883C68.7477 128.919 69.726 128.25 70.662 128.391C71.6448 128.54 72.2688 129.457 72.1542 130.42C71.7864 133.504 71.5046 136.6 71.2046 139.692C70.9002 142.842 70.6002 145.994 70.3213 149.148C70.3228 149.123 70.3259 149.097 70.3274 149.071C70.3244 149.115 70.3198 149.159 70.3168 149.201C70.3138 149.234 70.3108 149.266 70.3078 149.299C70.3093 149.275 70.3123 149.249 70.3138 149.225C70.0063 152.929 69.7244 156.635 69.4426 160.34C69.3748 161.229 69.3069 162.117 69.2406 163.005C69.1683 163.944 69.123 164.891 68.9949 165.824C68.9467 166.182 68.8819 166.538 68.7568 166.877C68.5759 167.366 68.3211 167.791 68.0076 168.204C67.8674 168.389 67.7062 168.552 67.5283 168.692C67.5524 169.042 67.4755 169.401 67.2841 169.717C66.5591 170.906 65.6442 171.951 64.5062 172.759C63.0109 173.818 61.2383 174.311 59.428 174.417C59.2351 174.429 59.0422 174.435 58.8522 174.435C57.8815 174.436 56.938 174.283 56.0125 173.921ZM59.0859 170.875C59.428 170.852 59.7687 170.822 60.1093 170.775C60.4153 170.716 60.7183 170.646 61.0182 170.561C61.2157 170.495 61.4086 170.419 61.6001 170.34C61.8156 170.233 62.0281 170.12 62.2346 169.997C62.4502 169.856 62.6582 169.705 62.8602 169.544C63.0395 169.385 63.2114 169.221 63.3772 169.048C63.4752 168.936 63.5701 168.822 63.6636 168.706C63.3696 168.581 63.0833 168.445 62.8029 168.312C61.9709 167.917 61.1494 167.497 60.2902 167.165C59.8109 167.019 59.3301 166.883 58.8417 166.766C58.4619 166.687 58.0835 166.615 57.7007 166.562C57.4595 166.547 57.2198 166.538 56.9772 166.538C56.748 166.553 56.5204 166.571 56.2928 166.598C56.1979 166.617 56.1014 166.635 56.0049 166.654C55.9974 166.662 55.9914 166.668 55.9838 166.675C55.9567 166.708 55.9296 166.742 55.904 166.775C55.8708 166.831 55.8376 166.888 55.8045 166.944C55.7834 166.989 55.7638 167.034 55.7457 167.081C55.7246 167.152 55.7035 167.221 55.6839 167.29C55.6673 167.378 55.6537 167.467 55.6432 167.556C55.6372 167.661 55.6342 167.767 55.6342 167.874C55.6462 168.05 55.6658 168.222 55.6899 168.397C55.711 168.498 55.7366 168.597 55.7638 168.697C55.8015 168.81 55.8422 168.921 55.8874 169.031C55.9597 169.182 56.0366 169.328 56.118 169.474C56.2084 169.607 56.3004 169.735 56.3968 169.862C56.4963 169.973 56.5973 170.08 56.7028 170.186C56.8038 170.272 56.9063 170.355 57.0118 170.435C57.0721 170.472 57.1324 170.508 57.1942 170.543C57.3042 170.596 57.4158 170.644 57.5288 170.691C57.6494 170.728 57.77 170.763 57.8921 170.793C58.0323 170.817 58.1709 170.84 58.3126 170.86C58.5734 170.875 58.8281 170.879 59.0859 170.875Z" />
<path id="Vector_7" d="M97.2177 172.552C96.2636 172.344 95.3622 172.037 94.494 171.588C92.8661 170.742 91.6 169.357 90.7061 167.773C90.4951 167.399 90.4484 166.972 90.5358 166.573C90.1635 166.168 89.9465 165.643 89.8711 165.1C89.7249 164.075 89.7354 163.026 89.6993 161.992C89.6706 161.112 89.6435 160.233 89.6194 159.353C89.5108 155.555 89.4264 151.755 89.3556 147.955C89.2772 143.668 89.2033 139.381 89.0406 135.097C88.9803 133.837 88.8823 132.573 88.8627 131.311C88.8491 130.339 89.743 129.549 90.685 129.572C91.6829 129.594 92.4109 130.423 92.426 131.394C92.426 131.409 92.426 131.426 92.426 131.441C92.5089 133.246 92.6114 135.054 92.6656 136.859C92.7289 138.912 92.7802 140.965 92.8239 143.018C92.9053 146.734 92.9581 150.451 93.044 154.166C93.1148 157.201 93.1887 160.236 93.3002 163.272C93.8127 162.995 94.3207 162.708 94.8437 162.454C95.629 162.074 96.4399 161.772 97.2946 161.587C98.3075 161.368 99.3807 161.362 100.406 161.495C100.697 161.533 100.986 161.57 101.275 161.606C101.809 161.676 102.312 161.825 102.816 162.004C103.796 162.356 104.686 163.007 105.404 163.748C105.983 164.348 106.447 165.129 106.647 165.94C106.86 166.802 106.842 167.657 106.598 168.511C106.118 170.185 104.643 171.561 103.063 172.207C102.522 172.429 101.943 172.608 101.361 172.69C100.84 172.765 100.323 172.795 99.7952 172.812C99.7063 172.815 99.6173 172.816 99.5299 172.816C98.7582 172.816 97.9683 172.715 97.2177 172.552ZM100.137 169.241C100.379 169.221 100.615 169.197 100.855 169.164C101.054 169.119 101.248 169.069 101.443 169.013C101.541 168.98 101.636 168.942 101.732 168.903C101.848 168.848 101.963 168.789 102.076 168.725C102.226 168.624 102.371 168.519 102.513 168.409C102.609 168.323 102.701 168.234 102.792 168.144C102.863 168.059 102.929 167.975 102.994 167.887C103.028 167.833 103.06 167.779 103.092 167.723C103.114 167.673 103.137 167.624 103.158 167.572C103.184 167.491 103.208 167.408 103.229 167.325C103.235 167.29 103.239 167.256 103.244 167.221C103.245 167.182 103.245 167.143 103.245 167.104C103.242 167.057 103.236 167.012 103.232 166.965C103.22 166.911 103.208 166.856 103.193 166.802C103.181 166.769 103.169 166.736 103.155 166.703C103.111 166.617 103.065 166.531 103.016 166.448C102.983 166.4 102.947 166.351 102.912 166.305C102.819 166.201 102.724 166.101 102.624 166.005C102.511 165.91 102.395 165.818 102.276 165.729C102.133 165.637 101.988 165.553 101.841 165.47C101.67 165.391 101.5 165.317 101.327 165.251C101.263 165.233 101.2 165.216 101.137 165.198C100.648 165.103 100.149 165.045 99.6535 164.995C99.3762 164.98 99.1003 164.972 98.8245 164.978C98.624 164.993 98.4235 165.013 98.2231 165.039C97.9909 165.084 97.7633 165.137 97.5357 165.2C97.2222 165.307 96.9147 165.426 96.6103 165.557C95.8265 165.941 95.0683 166.373 94.2935 166.776C94.3704 166.882 94.4503 166.988 94.5317 167.092C94.7367 167.327 94.9537 167.551 95.1798 167.768C95.3004 167.871 95.4225 167.972 95.5476 168.067C95.8069 168.234 96.0721 168.391 96.3435 168.539C96.553 168.633 96.7625 168.721 96.9765 168.802C97.2162 168.882 97.4574 168.953 97.7031 169.018C98.1673 169.111 98.6316 169.184 99.1033 169.232C99.447 169.245 99.7907 169.247 100.137 169.241Z" />
<path id="Vector_8" d="M59.3105 62.0499C57.4158 61.6052 55.6312 60.8124 53.8556 60.0406C52.903 59.6246 51.9744 59.1423 51.0369 58.6916C50.2546 58.3163 49.4723 57.9259 48.7051 57.5204C47.0606 56.6492 45.4327 55.7509 43.8124 54.8329C42.0835 53.8516 40.3576 52.8644 38.6122 51.9117C36.9195 50.9893 35.2253 50.0668 33.525 49.1564C31.7886 48.2279 30.0356 47.322 28.3128 46.3664C26.6457 45.4439 25.0012 44.4913 23.3748 43.501C21.765 42.5197 20.1432 41.555 18.5183 40.5979C16.8633 39.6242 15.2128 38.6444 13.5487 37.6843C12.7076 37.2004 12.3474 36.1498 12.8146 35.2741C13.2593 34.439 14.3852 34.0562 15.2248 34.54C18.4836 36.4212 21.7288 38.3324 24.9439 40.2904C26.5869 41.2913 28.2449 42.2574 29.9301 43.189C31.6258 44.1265 33.3472 45.0188 35.0549 45.9323C38.4841 47.7651 41.8876 49.6448 45.27 51.562C46.9265 52.5026 48.589 53.4251 50.2727 54.3159C51.9021 55.1781 53.5767 55.9604 55.2393 56.7577C55.8965 57.0441 56.5521 57.3305 57.2093 57.6154C57.6073 57.7887 58.0323 57.9169 58.4408 58.0676C58.7558 58.1821 59.0784 58.2801 59.3964 58.3811C59.6391 58.452 59.8818 58.5228 60.1275 58.5801C61.0741 58.8016 61.674 59.7814 61.4509 60.7235C61.2595 61.5374 60.5118 62.0936 59.7054 62.0936C59.5758 62.0966 59.4431 62.0815 59.3105 62.0499Z" />
<path id="Vector_9" d="M15.9513 38.126C13.9375 36.6896 11.862 35.342 9.85877 33.8905C9.39753 33.5574 8.9589 33.1926 8.51575 32.8384C8.06206 32.4736 7.61438 32.0757 7.20289 31.6627C6.76276 31.2211 6.32262 30.7824 5.89455 30.3272C5.41673 29.8223 4.94947 29.2977 4.42643 28.8365L4.42191 28.8335C3.67127 28.4175 3.31856 27.4618 3.62605 26.6464C3.97273 25.7284 5.01127 25.2792 5.92319 25.6078C6.51857 25.8234 6.98433 26.3283 7.41693 26.77C7.8239 27.1845 8.22032 27.608 8.61825 28.0301C9.29051 28.74 10.0035 29.3957 10.7285 30.0484C11.2937 30.4991 11.8605 30.9377 12.4453 31.3627C13.0437 31.7953 13.6602 32.2053 14.2707 32.6198C15.5308 33.4775 16.7848 34.3412 18.0254 35.226C18.8152 35.7897 19.0021 36.9247 18.4368 37.7115C18.0917 38.1938 17.5385 38.4501 16.9793 38.4501C16.6205 38.4531 16.2603 38.3461 15.9513 38.126Z" />
<path id="Vector_10" d="M15.4886 37.1901C14.851 35.0331 14.3265 32.8385 13.8125 30.6484C13.5336 29.4591 13.2653 28.2683 13.0196 27.073C12.7769 25.8958 12.5026 24.702 12.4348 23.5007C12.382 22.5315 13.2261 21.6995 14.1742 21.6769C15.1645 21.6543 15.9408 22.4426 15.9966 23.4088C16.1563 24.6975 16.4246 25.9636 16.6854 27.2358C17.3531 30.2384 18.0389 33.25 18.9117 36.2013C19.1875 37.1313 18.6223 38.1397 17.6953 38.408C17.534 38.4547 17.3727 38.4758 17.2114 38.4758C16.4397 38.4758 15.7177 37.9618 15.4886 37.1901Z" />
<path id="Vector_11" d="M0.944558 40.2423C0.680779 39.3258 1.22341 38.2828 2.16246 38.0341C4.34655 37.4598 6.5442 36.9322 8.74035 36.4077C11.0119 35.8651 13.3135 35.3993 15.5277 34.6532C15.8126 34.5462 16.096 34.4391 16.3809 34.3321C16.8225 34.1663 17.2762 34.1286 17.7239 34.299C18.1686 34.4663 18.5363 34.816 18.7278 35.2516C19.1016 36.1047 18.7187 37.2563 17.8098 37.5985C16.6718 38.025 15.5338 38.4335 14.3505 38.7229C13.1176 39.0229 11.8816 39.3168 10.6456 39.6122C8.14496 40.2091 5.63981 40.8015 3.15276 41.4572C2.99449 41.4994 2.83472 41.519 2.67796 41.519C1.89868 41.5205 1.17216 41.0306 0.944558 40.2423Z" />
<path id="Vector_12" d="M5.77247 47.0732C4.94948 46.6361 4.53648 45.4936 5.03841 44.6631C5.39715 44.0677 5.98349 43.7104 6.54873 43.3321C6.95872 43.0578 7.37172 42.788 7.78322 42.5167C8.62128 41.9635 9.45633 41.4043 10.2944 40.8496C11.152 40.2813 12.0112 39.7191 12.887 39.181C13.6798 38.6926 14.4983 38.248 15.2941 37.7641L15.2971 37.7611C15.3077 37.746 15.3182 37.7325 15.3273 37.7174C15.4177 37.5546 15.5006 37.3918 15.579 37.2245C15.7132 36.8944 15.8307 36.5598 15.9393 36.2221C16.5919 33.7848 17.0697 31.3083 17.7013 28.865C18.3449 26.3794 19.0247 23.9014 19.7588 21.4415C19.8959 20.9772 20.1461 20.5853 20.5682 20.3276C20.9646 20.0864 21.45 20.0111 21.9022 20.1181C22.8065 20.3321 23.5029 21.3315 23.2256 22.263C22.1433 25.9001 21.1575 29.5689 20.324 33.2708C20.119 34.1797 19.9321 35.0962 19.6894 35.9945C19.5161 36.6397 19.3443 37.2818 19.1332 37.9164C18.7956 38.9217 18.2952 39.9542 17.439 40.6129C17.0562 40.9069 16.6025 41.1209 16.1849 41.3621C15.7961 41.5851 15.4132 41.8158 15.0303 42.0464C14.2631 42.5106 13.5065 42.9945 12.7588 43.4889C11.1912 44.5259 9.62213 45.5599 8.06056 46.6075C7.98821 46.6602 7.91887 46.7145 7.84954 46.7718C7.64605 46.9753 7.40036 47.1305 7.10493 47.2149C6.94516 47.2601 6.77935 47.2843 6.61355 47.2843C6.32264 47.2813 6.03173 47.2119 5.77247 47.0732Z" />
<path id="Vector_13" d="M100.712 59.8575C99.9007 59.2772 99.762 58.1798 100.299 57.3719C100.779 56.6454 101.363 55.9807 101.916 55.3099C102.441 54.6723 103.009 54.08 103.598 53.5012C104.243 52.8666 104.896 52.2411 105.552 51.6155C105.803 51.3744 106.052 51.1302 106.308 50.892C106.313 50.8875 106.317 50.883 106.322 50.88C106.408 50.7835 106.503 50.6961 106.605 50.6177C106.601 50.6222 106.596 50.6267 106.592 50.6297C106.595 50.6267 106.598 50.6252 106.599 50.6222C106.601 50.6207 106.604 50.6192 106.605 50.6177L106.607 50.6147C106.635 50.5875 106.664 50.5619 106.691 50.5363C106.711 50.5182 106.73 50.5001 106.75 50.482C106.813 50.4232 106.875 50.366 106.938 50.3072C107.036 50.2107 107.142 50.1188 107.244 50.0238C107.285 49.9861 107.326 49.9484 107.368 49.9123C107.391 49.8897 107.415 49.8671 107.439 49.8444C107.491 49.7962 107.543 49.7465 107.596 49.6967C107.627 49.6651 107.66 49.6349 107.693 49.6048C107.721 49.5807 107.746 49.5565 107.773 49.5324C107.832 49.4782 107.892 49.4224 107.951 49.3681C108.005 49.3109 108.063 49.2581 108.123 49.2099C108.206 49.133 108.29 49.0546 108.373 48.9777C108.313 49.032 108.256 49.0878 108.195 49.142C108.34 49.0079 108.48 48.8602 108.631 48.7245C108.706 48.6416 108.788 48.5632 108.875 48.4924C108.922 48.4472 108.972 48.4035 109.023 48.3628C109.047 48.3417 109.073 48.3206 109.097 48.2995C109.246 48.1578 109.406 48.0266 109.555 47.8925C110.081 47.4222 110.609 46.9519 111.135 46.4801C111.739 45.942 112.345 45.4069 112.962 44.8794C114.626 43.4474 116.302 42.0291 117.984 40.6167C120.935 38.1402 123.897 35.6758 126.862 33.2173C129.833 30.7559 132.834 28.3307 135.769 25.824C138.574 23.4304 141.353 21.0097 144.185 18.6492C144.591 18.3116 144.995 17.974 145.4 17.6363C146.146 17.0153 147.299 17.1525 147.905 17.8986C148.523 18.6598 148.389 19.7827 147.643 20.4037C144.758 22.8049 141.899 25.2331 139.061 27.687C136.028 30.3067 132.932 32.8435 129.834 35.3848C126.821 37.8568 123.837 40.3665 120.846 42.8656C119.517 43.9765 118.184 45.0844 116.871 46.2133C115.198 47.6513 113.542 49.1029 111.897 50.5725C111.726 50.7262 111.555 50.8785 111.385 51.0307C111.389 51.0277 111.392 51.0232 111.395 51.0201C111.382 51.0322 111.367 51.0458 111.353 51.0578C111.317 51.094 111.279 51.1302 111.24 51.1633C111.221 51.1829 111.201 51.201 111.18 51.2206C111.175 51.2251 111.172 51.2281 111.168 51.2327C111.213 51.192 111.257 51.1498 111.302 51.1091C111.255 51.1528 111.209 51.195 111.162 51.2387C111.144 51.2553 111.126 51.2719 111.108 51.2884C111.046 51.3457 110.982 51.4045 110.921 51.4618C110.823 51.5582 110.719 51.6502 110.618 51.7452C110.577 51.7828 110.536 51.8205 110.496 51.8552C110.473 51.8793 110.449 51.9019 110.425 51.9245C110.367 51.9773 110.312 52.0315 110.254 52.0843C110.23 52.1084 110.205 52.1325 110.179 52.1551C110.144 52.1868 110.11 52.2185 110.074 52.2501C110.019 52.3014 109.963 52.3526 109.909 52.4023C109.856 52.4581 109.801 52.5094 109.743 52.5561C109.694 52.6013 109.645 52.648 109.596 52.6933C109.475 52.8093 109.356 52.9299 109.231 53.0445C109.159 53.1243 109.079 53.1997 108.996 53.2691C108.948 53.3158 108.896 53.361 108.844 53.4032C108.813 53.4303 108.783 53.456 108.752 53.4816C108.47 53.7514 108.186 54.0227 107.905 54.291C107.495 54.6829 107.08 55.0733 106.676 55.4712C106.174 55.9626 105.68 56.454 105.196 56.9635C104.805 57.3719 104.456 57.8226 104.097 58.2582C104.147 58.1979 104.198 58.1376 104.248 58.0758C103.891 58.5235 103.517 58.9667 103.2 59.446C102.876 59.9344 102.317 60.1846 101.756 60.1846C101.384 60.1831 101.015 60.076 100.712 59.8575Z" />
<path id="Vector_14" d="M146.846 29.538C145.834 29.5079 144.826 29.4566 143.818 29.3812C142.693 29.2953 141.552 29.1461 140.464 28.8507C139.477 28.5839 138.509 28.1272 137.814 27.3615C137.52 27.0389 137.237 26.6319 137.124 26.2054C137.063 25.9808 136.988 25.7501 136.991 25.5165C136.996 25.2151 137.023 24.9392 137.086 24.6438C137.167 24.2579 137.305 23.8751 137.416 23.4982C137.543 23.0702 137.669 22.6406 137.797 22.214C138.07 21.29 138.342 20.366 138.611 19.4421C138.727 19.0456 138.84 18.6507 138.957 18.2528C139.119 17.6951 139.253 17.1012 139.528 16.5842C139.877 15.9255 140.59 15.5653 141.325 15.6271C142.292 15.7085 143.01 16.634 142.91 17.5836C142.882 17.8594 142.791 18.1126 142.654 18.3312C142.613 18.4472 142.577 18.5648 142.539 18.6824C142.199 19.8475 141.861 21.0127 141.519 22.1778C141.346 22.7642 141.172 23.3505 140.999 23.9354C140.883 24.3273 140.756 24.7207 140.648 25.1171C140.703 25.1487 140.759 25.1774 140.817 25.206C140.991 25.2769 141.165 25.3402 141.343 25.3974C141.593 25.4638 141.843 25.5225 142.096 25.5768C143.402 25.7758 144.704 25.8828 146.021 25.9536C148.071 26.0139 150.126 26.0169 152.176 25.931C153.146 25.8903 153.978 26.7118 153.999 27.6689C154.024 28.6517 153.231 29.4521 152.262 29.4928C151.123 29.541 149.981 29.5666 148.84 29.5666C148.171 29.5666 147.507 29.5576 146.846 29.538Z" />
<path id="Vector_15" d="M149.734 34.7152C149.687 34.6941 149.642 34.673 149.595 34.6519C149.63 34.6685 149.664 34.6835 149.699 34.7001C147.988 33.9269 146.274 33.1612 144.553 32.4075C142.839 31.6584 141.1 30.9937 139.33 30.3937C138.919 30.2732 138.506 30.142 138.085 30.0456C137.55 29.922 137.017 29.8044 136.475 29.7034C136.537 29.714 136.598 29.7245 136.658 29.7335C136.289 29.6717 135.942 29.6009 135.592 29.4577C135.226 29.307 134.976 29.0733 134.721 28.7764C134.332 28.3257 134.224 27.6655 134.092 27.1018C133.907 26.3135 133.755 25.5161 133.603 24.7218C133.45 23.9289 133.309 23.1346 133.171 22.3387C133.108 21.9634 133.048 21.585 132.989 21.2082C132.894 20.5978 132.712 19.9285 132.802 19.312C132.872 18.8402 133.077 18.4182 133.452 18.1137C133.833 17.8047 134.279 17.7052 134.759 17.7263C134.93 17.7339 135.083 17.7866 135.244 17.8379C136.052 18.0941 136.492 18.9895 136.37 19.7929C136.433 20.2707 136.522 20.7485 136.599 21.2233C136.683 21.7478 136.769 22.2724 136.864 22.7954C137.056 23.846 137.256 24.8951 137.476 25.9412C137.46 25.8658 137.443 25.7904 137.427 25.7151C137.469 25.905 137.511 26.0949 137.556 26.2833C138.589 26.4793 139.612 26.728 140.607 27.0641C141.903 27.5027 143.175 27.9805 144.443 28.4915C145.548 28.9377 146.636 29.4291 147.725 29.9159C148.954 30.4646 150.184 31.0133 151.41 31.5694C152.295 31.9704 152.578 33.1642 152.144 33.9796C151.919 34.4002 151.524 34.7197 151.066 34.8524C150.908 34.8976 150.753 34.9187 150.597 34.9187C150.304 34.9202 150.016 34.8433 149.734 34.7152Z" />
</g>
</svg>
