<svg width="20" height="20" viewBox="0 0 20 20" fill="none" xmlns="http://www.w3.org/2000/svg">
<g clip-path="url(#clip0_405_20401)">
<path fill-rule="evenodd" clip-rule="evenodd" d="M7.02999 13.7682L6.66599 18.6265C6.64041 18.9679 6.94391 19.203 7.21537 19.0508C9.13737 17.9743 15.1579 14.02 18.2094 5.32913C18.3493 4.93047 17.9733 4.57072 17.6522 4.79559C15.8498 6.05793 11.9106 8.66693 9.4762 9.16393C9.4762 9.16393 11.0352 8.08109 11.9683 6.41888C12.0597 6.25597 12.0522 6.04734 11.9502 5.90026L8.54728 0.99553C8.34562 0.704788 7.93174 0.825246 7.85891 1.19585L6.79953 6.58638L1.82715 10.9261C1.57783 11.1436 1.62869 11.5832 1.91653 11.6996L7.02999 13.7682Z" />
<path fill-rule="evenodd" clip-rule="evenodd" d="M15.8228 11.8533C15.5079 12.2927 14.8296 13.1966 14.2033 13.7489C14.078 13.8593 14.0949 14.0445 14.2386 14.1348L17.5478 16.2121C17.747 16.3371 18.0161 16.1887 17.9824 15.9718C17.8285 14.979 17.385 12.9091 16.2638 11.8226C16.1385 11.7013 15.9227 11.714 15.8228 11.8533Z" />
</g>
<defs>
<clipPath id="clip0_405_20401">
<rect width="20" height="20" />
</clipPath>
</defs>
</svg>
