<svg width="24" height="24" viewBox="0 0 24 24" fill="none" xmlns="http://www.w3.org/2000/svg">
<path fill-rule="evenodd" clip-rule="evenodd" d="M3 5.71063C3 4.21359 4.21359 3 5.71063 3H11.2869C12.0058 3 12.6953 3.28558 13.2036 3.79393L20.2061 10.7964C21.2646 11.8549 21.2646 13.5712 20.2061 14.6298L14.6298 20.2061C13.5712 21.2646 11.8549 21.2646 10.7964 20.2061L3.79392 13.2036C3.28558 12.6953 3 12.0058 3 11.2869V5.71063ZM7.96949 9.3248C8.71801 9.3248 9.3248 8.71801 9.3248 7.96949C9.3248 7.22097 8.71801 6.61417 7.96949 6.61417C7.22097 6.61417 6.61417 7.22097 6.61417 7.96949C6.61417 8.71801 7.22097 9.3248 7.96949 9.3248Z" />
</svg>
