<svg width="25" height="24" viewBox="0 0 25 24" fill="none" xmlns="http://www.w3.org/2000/svg">
<path d="M9.99845 1.61535C9.50989 1.3578 8.90505 1.54507 8.64751 2.03363C8.38996 2.52219 8.57723 3.12702 9.06579 3.38457C9.8655 3.80614 10.4058 4.29837 10.7776 4.87384C10.9001 5.06353 11.0084 5.26861 11.1026 5.49161C10.2016 5.27998 9.36144 5.22481 8.5848 5.32029C7.30048 5.47819 6.25034 6.04169 5.45026 6.87598C3.88685 8.50625 3.36455 11.0592 3.52893 13.4556C3.69452 15.8697 4.57135 18.3934 6.13497 20.0749C6.92662 20.9262 7.914 21.5804 9.08518 21.8571C10.1477 22.1081 11.297 22.0331 12.4988 21.5951C13.7008 22.0331 14.8504 22.1081 15.9131 21.8571C17.0845 21.5804 18.0721 20.9263 18.8639 20.075C20.428 18.3935 21.305 15.8698 21.4707 13.4556C21.6351 11.0592 21.1127 8.50618 19.5489 6.87591C18.7487 6.04163 17.6984 5.47818 16.4139 5.3203C15.4588 5.2029 14.4076 5.31325 13.2652 5.6622C13.0883 4.98587 12.8266 4.35987 12.4575 3.78858C11.8711 2.88083 11.0519 2.17069 9.99845 1.61535Z"/>
</svg>
