<svg width="25" height="24" viewBox="0 0 25 24" fill="none" xmlns="http://www.w3.org/2000/svg">
<path d="M18.2107 4.73018C18.8523 4.53769 19.498 5.01814 19.498 5.688V12.4713C18.8908 12.1668 18.1981 11.9999 17.498 11.9999C15.4674 11.9999 13.498 13.404 13.498 15.4999C13.498 17.5959 15.4674 18.9999 17.498 18.9999C19.5287 18.9999 21.498 17.5959 21.498 15.4999V5.688C21.498 3.67841 19.5608 2.23707 17.636 2.81452L11.636 4.61452C10.3671 4.99521 9.49805 6.16318 9.49805 7.488V15.4713C8.89077 15.1668 8.19806 14.9999 7.49805 14.9999C5.46737 14.9999 3.49805 16.404 3.49805 18.4999C3.49805 20.5959 5.46737 21.9999 7.49805 21.9999C9.52873 21.9999 11.498 20.5959 11.498 18.4999V7.488C11.498 7.04639 11.7877 6.65707 12.2107 6.53018L18.2107 4.73018Z"/>
</svg>
