<svg width="25" height="24" viewBox="0 0 25 24" fill="none" xmlns="http://www.w3.org/2000/svg">
<path fill-rule="evenodd" clip-rule="evenodd" d="M12.5003 0.757324L14.6216 2.87864C15.7932 4.05022 15.7932 5.94971 14.6216 7.12129C14.294 7.44886 13.9096 7.68484 13.5 7.82924V8.99997H18C19.6569 8.99997 21 10.3431 21 12V13.6459C21 14.2494 20.8193 14.8229 20.5 15.3042V19C20.5 20.6568 19.1569 22 17.5 22H7.5C5.84315 22 4.5 20.6568 4.5 19V15.3042C4.18074 14.8229 4 14.2494 4 13.6459V12C4 10.3431 5.34315 8.99997 7 8.99997H11.5V7.82902C11.0907 7.68461 10.7064 7.4487 10.379 7.12129C9.20741 5.94971 9.20741 4.05022 10.379 2.87864L12.5003 0.757324ZM7 11C6.44772 11 6 11.4477 6 12V13.6459C6 14.0548 6.24895 14.4225 6.62861 14.5744L7.12861 14.7744C7.36702 14.8697 7.63298 14.8697 7.87139 14.7744L8.88583 14.3686C9.60106 14.0825 10.3989 14.0825 11.1142 14.3686L12.1286 14.7744C12.367 14.8697 12.633 14.8697 12.8714 14.7744L13.8858 14.3686C14.6011 14.0825 15.3989 14.0825 16.1142 14.3686L17.1286 14.7744C17.367 14.8697 17.633 14.8697 17.8714 14.7744L18.3714 14.5744C18.751 14.4225 19 14.0548 19 13.6459V12C19 11.4477 18.5523 11 18 11H7Z"/>
</svg>
