<svg width="25" height="24" viewBox="0 0 25 24" fill="none" xmlns="http://www.w3.org/2000/svg">
<path fill-rule="evenodd" clip-rule="evenodd" d="M7.5 2C5.84315 2 4.5 3.34315 4.5 5V19C4.5 20.6569 5.84315 22 7.5 22H17.5C19.1569 22 20.5 20.6569 20.5 19V5C20.5 3.34315 19.1569 2 17.5 2H7.5ZM6.5 19C6.5 19.5523 6.94772 20 7.5 20H17.5C18.0523 20 18.5 19.5523 18.5 19V17.8293C18.1872 17.9398 17.8506 18 17.5 18H7.5C6.94772 18 6.5 18.4477 6.5 19ZM9.5 6C8.94772 6 8.5 6.44772 8.5 7C8.5 7.55228 8.94772 8 9.5 8H15.5C16.0523 8 16.5 7.55228 16.5 7C16.5 6.44772 16.0523 6 15.5 6H9.5ZM8.5 11C8.5 10.4477 8.94772 10 9.5 10H12.5C13.0523 10 13.5 10.4477 13.5 11C13.5 11.5523 13.0523 12 12.5 12H9.5C8.94772 12 8.5 11.5523 8.5 11Z"/>
</svg>
