<svg width="25" height="24" viewBox="0 0 25 24" fill="none" xmlns="http://www.w3.org/2000/svg">
<path d="M12.5 3C15.5647 3 18.1899 3.79161 20.0674 5.35691C21.9668 6.94042 23 9.23347 23 12C23 14.7665 21.9668 17.0596 20.0674 18.6431C18.1899 20.2084 15.5647 21 12.5 21C10.8807 21 9.05744 20.8505 7.41575 20.1378C7.13664 20.2938 6.75233 20.4834 6.29596 20.6417C5.34475 20.9717 3.95903 21.2047 2.57192 20.5477C2.29975 20.4187 2.10018 20.174 2.02864 19.8815C1.95709 19.5889 2.0212 19.2797 2.20314 19.0398C2.89154 18.1318 3.10848 17.4277 3.16855 16.9774C3.22638 16.544 3.14543 16.2957 3.13604 16.2688L3.1367 16.2704C3.1367 16.2704 3.13611 16.2689 3.13523 16.2665L3.13604 16.2688C3.13604 16.2688 3.13499 16.2662 3.1341 16.2641L3.12642 16.2461L3.11364 16.2158C3.03706 16.0322 2.76608 15.3691 2.5126 14.578C2.26934 13.8187 2.00001 12.8165 2.00001 12C2.00001 9.23347 3.03317 6.94042 4.93258 5.35691C6.81015 3.79161 9.43532 3 12.5 3Z"/>
</svg>
