<svg width="25" height="24" viewBox="0 0 25 24" fill="none" xmlns="http://www.w3.org/2000/svg">
<path d="M6.58892 4.86669C8.59973 4.21897 10.9602 4 12.5 4C14.0398 4 16.4003 4.21897 18.4111 4.86669C19.4138 5.18967 20.4017 5.64179 21.1564 6.28456C21.9307 6.94413 22.5 7.84629 22.5 9C22.5 9.55228 22.0523 10 21.5 10H3.5C2.94772 10 2.5 9.55228 2.5 9C2.5 7.84629 3.06929 6.94413 3.84365 6.28456C4.59829 5.64179 5.58623 5.18967 6.58892 4.86669Z"/>
<path d="M5.38462 13.5481C6.09846 13.2506 6.90154 13.2506 7.61539 13.5481C8.82154 14.0506 10.1785 14.0506 11.3846 13.5481C12.0985 13.2506 12.9015 13.2506 13.6154 13.5481C14.8215 14.0506 16.1785 14.0506 17.3846 13.5481C18.0985 13.2506 18.9015 13.2506 19.6154 13.5481C20.2183 13.7993 20.8589 13.9249 21.4994 13.925C22.0517 13.9251 22.4994 13.4774 22.4995 12.9251C22.4996 12.3728 22.0519 11.9251 21.4996 11.925C21.1205 11.925 20.7414 11.8506 20.3846 11.7019C19.1785 11.1994 17.8215 11.1994 16.6154 11.7019C15.9015 11.9994 15.0985 11.9994 14.3846 11.7019C13.1785 11.1994 11.8215 11.1994 10.6154 11.7019C9.90154 11.9994 9.09846 11.9994 8.38462 11.7019C7.17846 11.1994 5.82154 11.1994 4.61539 11.7019C4.25845 11.8506 3.87928 11.925 3.5 11.925C2.94772 11.925 2.5 12.3727 2.5 12.925C2.5 13.4773 2.94772 13.925 3.5 13.925C4.14072 13.925 4.78155 13.7994 5.38462 13.5481Z"/>
<path d="M18.532 20C18.9706 20 19.3491 20 19.6624 19.9787C19.9922 19.9561 20.3221 19.9066 20.6481 19.7716C21.3831 19.4672 21.9672 18.8831 22.2716 18.1481C22.4066 17.8221 22.4561 17.4922 22.4787 17.1624C22.5 16.8491 22.5 16.4706 22.5 16.032V16C22.5 15.4477 22.0523 15 21.5 15H3.5C2.94772 15 2.5 15.4477 2.5 16V16.032C2.49999 16.4706 2.49998 16.8491 2.52135 17.1624C2.54386 17.4922 2.59336 17.8221 2.72836 18.1481C3.03284 18.8831 3.61687 19.4672 4.35195 19.7716C4.67788 19.9066 5.00779 19.9561 5.33762 19.9787C5.65087 20 6.02934 20 6.46798 20H18.532Z"/>
</svg>
