<svg width="25" height="24" viewBox="0 0 25 24" fill="none" xmlns="http://www.w3.org/2000/svg">
<path d="M13.4998 3C13.4998 2.44772 13.052 2 12.4998 2C11.9475 2 11.4998 2.44772 11.4998 3V4C11.4998 4.55228 11.9475 5 12.4998 5C13.052 5 13.4998 4.55228 13.4998 4V3Z"/>
<path d="M4.84285 3.92888C4.45232 3.53836 3.81916 3.53836 3.42864 3.92888C3.03811 4.3194 3.03811 4.95257 3.42864 5.34309L4.13574 6.0502C4.52627 6.44072 5.15943 6.44072 5.54996 6.0502C5.94048 5.65968 5.94048 5.02651 5.54996 4.63599L4.84285 3.92888Z"/>
<path d="M21.5709 5.34309C21.9614 4.95257 21.9614 4.3194 21.5709 3.92888C21.1804 3.53836 20.5472 3.53836 20.1567 3.92888L19.4496 4.63599C19.059 5.02651 19.059 5.65968 19.4496 6.0502C19.8401 6.44072 20.4732 6.44072 20.8638 6.0502L21.5709 5.34309Z"/>
<path d="M9.32836 7C8.53271 7 7.76965 7.31607 7.20704 7.87868L4.2271 10.8586C3.89408 11.1916 3.65587 11.5832 3.51221 12H21.4877C21.344 11.5832 21.1058 11.1916 20.7728 10.8586L17.7928 7.87868C17.2302 7.31607 16.4672 7 15.6715 7H9.32836Z"/>
<path d="M4.25718 15.1309C3.91958 14.8027 3.67591 14.4146 3.52639 14H21.4735C21.324 14.4146 21.0803 14.8027 20.7427 15.1309L14.5912 21.1116C13.4268 22.2436 11.5731 22.2436 10.4087 21.1116L4.25718 15.1309Z"/>
</svg>
