<svg width="25" height="24" viewBox="0 0 25 24" fill="none" xmlns="http://www.w3.org/2000/svg">
<path d="M14.7182 16.486C13.4983 13.5647 11.0459 12 8.5003 12C5.95475 12 3.5023 13.5647 2.28237 16.486C1.78524 17.6764 2.08755 18.8525 2.79671 19.6858C3.48773 20.4978 4.56576 21 5.71922 21H11.2814C12.4348 21 13.5129 20.4978 14.2039 19.6858C14.913 18.8525 15.2154 17.6764 14.7182 16.486Z"/>
<path d="M4.50049 7C4.50049 4.79086 6.29135 3 8.50049 3C10.7096 3 12.5005 4.79086 12.5005 7C12.5005 9.20914 10.7096 11 8.50049 11C6.29135 11 4.50049 9.20914 4.50049 7Z"/>
<path d="M14.0005 7.5C14.0005 5.567 15.5675 4 17.5005 4C19.4335 4 21.0005 5.567 21.0005 7.5C21.0005 9.433 19.4335 11 17.5005 11C15.5675 11 14.0005 9.433 14.0005 7.5Z"/>
<path d="M14.6974 12.7735C15.4537 13.5934 16.09 14.5805 16.5639 15.7152C17.2024 17.2441 17.0293 18.7698 16.3886 20H19.4273C20.5815 20 21.6672 19.4917 22.3504 18.6751C23.0568 17.8307 23.3354 16.6324 22.7447 15.4523C21.6191 13.2036 19.5969 12 17.5034 12C16.5243 12 15.5608 12.2632 14.6974 12.7735Z"/>
</svg>
