<svg width="25" height="24" viewBox="0 0 25 24" fill="none" xmlns="http://www.w3.org/2000/svg">
<path fill-rule="evenodd" clip-rule="evenodd" d="M10.6082 1.99856C11.7104 1.10302 13.2896 1.10302 14.3918 1.99856L20.3918 6.87356C21.0929 7.44323 21.5 8.29852 21.5 9.2019V18C21.5 19.6568 20.1569 21 18.5 21H6.5C4.84315 21 3.5 19.6568 3.5 18V9.2019C3.5 8.29852 3.90709 7.44323 4.60822 6.87356L10.6082 1.99856ZM8.5 14.9999C7.94772 14.9999 7.5 15.4477 7.5 15.9999C7.5 16.5522 7.94772 16.9999 8.5 16.9999H16.5C17.0523 16.9999 17.5 16.5522 17.5 15.9999C17.5 15.4477 17.0523 14.9999 16.5 14.9999H8.5Z"/>
</svg>
