<svg width="25" height="24" viewBox="0 0 25 24" fill="none" xmlns="http://www.w3.org/2000/svg">
<path d="M5.5 4C3.84315 4 2.5 5.34315 2.5 7V15.5C2.5 16.0523 2.94772 16.5 3.5 16.5H21.5C22.0523 16.5 22.5 16.0523 22.5 15.5V7C22.5 5.34315 21.1569 4 19.5 4H5.5Z"/>
<path d="M1.5 18.5C1.5 18.2239 1.72386 18 2 18H9.26393C9.41918 18 9.57229 18.0361 9.71115 18.1056L10.2889 18.3944C10.4277 18.4639 10.5808 18.5 10.7361 18.5H14.2639C14.4192 18.5 14.5723 18.4639 14.7111 18.3944L15.2889 18.1056C15.4277 18.0361 15.5808 18 15.7361 18H23C23.2761 18 23.5 18.2239 23.5 18.5V19C23.5 19.5523 23.0523 20 22.5 20H2.5C1.94772 20 1.5 19.5523 1.5 19V18.5Z"/>
</svg>
