<svg width="25" height="24" viewBox="0 0 25 24" fill="none" xmlns="http://www.w3.org/2000/svg">
<path d="M11.5 8.00011C11.5 5.79097 9.70915 4.00011 7.50001 4.00011C6.33347 4.00011 5.16692 4.00018 4.00038 4.00018C2.61953 4.00017 1.5 5.1195 1.5 6.50035C1.49998 10.167 1.50004 13.8336 1.50002 17.5002C1.50002 18.8809 2.6192 20.0001 3.99986 20.0002C5.74091 20.0002 7.48196 20.0001 9.22301 20.0001C9.74368 20.0001 10.2234 20.1254 10.6234 20.3726C10.9822 20.5943 11.2822 20.8975 11.5 21.2562V8.00011Z"/>
<path d="M13.5 21.2562C13.7178 20.8975 14.0178 20.5943 14.3766 20.3726C14.7767 20.1254 15.2563 20.0001 15.777 20.0001C17.518 20.0001 19.259 20.0001 21 20.0001C22.3807 20.0001 23.5 18.8808 23.5 17.5001C23.5 13.8335 23.5 10.1669 23.5 6.50024C23.5 5.11946 22.3806 4.00014 20.9998 4.00014C19.8332 4.00014 18.6666 4.00011 17.5 4.00011C15.2909 4.00011 13.5 5.79097 13.5 8.00011V21.2562Z"/>
</svg>
