<svg width="25" height="24" viewBox="0 0 25 24" fill="none" xmlns="http://www.w3.org/2000/svg">
<path fill-rule="evenodd" clip-rule="evenodd" d="M9.5 3C9.5 2.44772 9.94772 2 10.5 2H14.5C15.0523 2 15.5 2.44772 15.5 3V6H17.5C18.6046 6 19.5 6.89543 19.5 8V10.6577L13.4699 9.15019C12.8329 8.99095 12.1666 8.99095 11.5296 9.15019L5.5 10.6576V8C5.5 6.89543 6.39543 6 7.5 6H9.5V3Z"/>
<path d="M19.7205 18.5801L21.7171 19.0238C22.2563 19.1436 22.5962 19.6778 22.4764 20.2169C22.3566 20.756 21.8224 21.096 21.2833 20.9762L17.2171 20.0726C17.0743 20.0408 16.9262 20.0408 16.7833 20.0726L13.151 20.8797C12.7224 20.975 12.2781 20.975 11.8494 20.8797L8.21714 20.0726C8.07427 20.0408 7.92616 20.0408 7.78328 20.0726L3.71714 20.9762C3.17801 21.096 2.64383 20.756 2.52403 20.2169C2.40422 19.6778 2.74415 19.1436 3.28328 19.0238L5.27997 18.5801C4.11688 16.6355 2.48028 13.4742 5.97704 12.6L11.7726 11.1511C12.2503 11.0317 12.7501 11.0317 13.2278 11.1511L19.0234 12.6C22.5202 13.4742 20.8835 16.6355 19.7205 18.5801Z"/>
</svg>
