<svg width="25" height="24" viewBox="0 0 25 24" fill="none" xmlns="http://www.w3.org/2000/svg">
<path fill-rule="evenodd" clip-rule="evenodd" d="M8.5 3C7.94772 3 7.5 3.44772 7.5 4V7H4.5C3.94772 7 3.5 7.44772 3.5 8V18C3.5 19.6569 4.84315 21 6.5 21H18.5C20.1569 21 21.5 19.6569 21.5 18V8C21.5 7.44772 21.0523 7 20.5 7H17.5V4C17.5 3.44772 17.0523 3 16.5 3H8.5ZM15.5 7V11C15.5 11.5523 15.9477 12 16.5 12C17.0523 12 17.5 11.5523 17.5 11V7H15.5ZM9.5 7V11C9.5 11.5523 9.05228 12 8.5 12C7.94772 12 7.5 11.5523 7.5 11V7H9.5ZM9.5 7H15.5V5H9.5V7Z"/>
</svg>
