<svg width="25" height="24" viewBox="0 0 25 24" fill="none" xmlns="http://www.w3.org/2000/svg">
<path d="M9 2C7.89543 2 7 2.89543 7 4V6.99695C7 8.65455 6.34152 10.2443 5.16942 11.4164L4.79289 11.7929C4.60536 11.9804 4.5 12.2348 4.5 12.5V14C4.5 15.1046 5.39543 16 6.5 16H11.5V21C11.5 21.5523 11.9477 22 12.5 22C13.0523 22 13.5 21.5523 13.5 21V16H18.5C19.6046 16 20.5 15.1046 20.5 14V12.5C20.5 12.2348 20.3946 11.9804 20.2071 11.7929L19.8306 11.4164C18.6585 10.2443 18 8.65455 18 6.99695V4C18 2.89543 17.1046 2 16 2H9Z"/>
</svg>
