<svg width="25" height="24" viewBox="0 0 25 24" fill="none" xmlns="http://www.w3.org/2000/svg">
<path fill-rule="evenodd" clip-rule="evenodd" d="M2.5 7C2.5 5.34315 3.84315 4 5.5 4H19.5C21.1569 4 22.5 5.34315 22.5 7V9.25C22.5 9.6589 22.251 10.0266 21.8714 10.1785C20.2095 10.8432 20.2095 13.1568 21.8714 13.8215C22.251 13.9734 22.5 14.3411 22.5 14.75V17C22.5 18.6569 21.1569 20 19.5 20H5.5C3.84315 20 2.5 18.6569 2.5 17V14.75C2.5 14.3411 2.74895 13.9734 3.12861 13.8215C4.79046 13.1568 4.79046 10.8432 3.12861 10.1785C2.74895 10.0266 2.5 9.6589 2.5 9.25V7ZM15.5 7C16.0523 7 16.5 7.44772 16.5 8V8.01C16.5 8.56229 16.0523 9.01 15.5 9.01C14.9477 9.01 14.5 8.56229 14.5 8.01V8C14.5 7.44772 14.9477 7 15.5 7ZM15.5 11C16.0523 11 16.5 11.4477 16.5 12V12.01C16.5 12.5623 16.0523 13.01 15.5 13.01C14.9477 13.01 14.5 12.5623 14.5 12.01V12C14.5 11.4477 14.9477 11 15.5 11ZM15.5 15C16.0523 15 16.5 15.4477 16.5 16V16.01C16.5 16.5623 16.0523 17.01 15.5 17.01C14.9477 17.01 14.5 16.5623 14.5 16.01V16C14.5 15.4477 14.9477 15 15.5 15Z"/>
</svg>
