<svg width="25" height="24" viewBox="0 0 25 24" fill="none" xmlns="http://www.w3.org/2000/svg">
<path d="M12.4999 4.58576L19.9143 11.9998L21.2926 10.6215C22.4642 9.44993 22.4642 7.55044 21.2926 6.37887L18.121 3.20729C16.9495 2.03572 15.05 2.03572 13.8784 3.20729L12.4999 4.58576Z"/>
<path d="M18.9032 13.817L10.6827 5.59693L7.70519 6.67965C6.72865 7.03476 6.00541 7.86991 5.79348 8.88717L3.58203 19.5021L8.65387 14.4303C8.54271 14.1473 8.48166 13.8391 8.48166 13.5166C8.48166 12.1359 9.60095 11.0166 10.9817 11.0166C12.3624 11.0166 13.4817 12.1359 13.4817 13.5166C13.4817 14.8973 12.3624 16.0166 10.9817 16.0166C10.6592 16.0166 10.3511 15.9556 10.0681 15.8445L4.99378 20.9188L15.6128 18.7065C16.6301 18.4946 17.4652 17.7713 17.8203 16.7948L18.9032 13.817Z"/>
</svg>
